<?xml version="1.0" encoding="UTF-8" standalone="no"?><svg xmlns="http://www.w3.org/2000/svg" xmlns:xlink="http://www.w3.org/1999/xlink" contentScriptType="application/ecmascript" contentStyleType="text/css" height="844px" preserveAspectRatio="none" style="width:450px;height:844px;" version="1.1" viewBox="0 0 450 844" width="450px" zoomAndPan="magnify"><defs><filter height="300%" id="fgeisr8w45p8v" width="300%" x="-1" y="-1"><feGaussianBlur result="blurOut" stdDeviation="2.0"/><feColorMatrix in="blurOut" result="blurOut2" type="matrix" values="0 0 0 0 0 0 0 0 0 0 0 0 0 0 0 0 0 0 .4 0"/><feOffset dx="4.0" dy="4.0" in="blurOut2" result="blurOut3"/><feBlend in="SourceGraphic" in2="blurOut3" mode="normal"/></filter></defs><g><!--MD5=[2c1e2c5d18a3739ef73a3a948d436480]
class BatteryDB--><rect codeLine="4" fill="#FEFECE" filter="url(#fgeisr8w45p8v)" height="61.8359" id="BatteryDB" style="stroke:#A80036;stroke-width:1.5;" width="86" x="111.5" y="769"/><ellipse cx="126.5" cy="785" fill="#ADD1B2" rx="11" ry="11" style="stroke:#A80036;stroke-width:1.0;"/><path d="M129.2656,780.875 Q129.4219,780.6563 129.6094,780.5469 Q129.7969,780.4375 130.0156,780.4375 Q130.3906,780.4375 130.625,780.7031 Q130.8594,780.9531 130.8594,781.5625 L130.8594,783.0156 Q130.8594,783.625 130.625,783.8906 Q130.3906,784.1563 130.0156,784.1563 Q129.6719,784.1563 129.4688,783.9531 Q129.2656,783.7656 129.1563,783.25 Q129.1094,782.8906 128.9219,782.7031 Q128.5938,782.3281 127.9844,782.1094 Q127.375,781.8906 126.75,781.8906 Q125.9844,781.8906 125.3438,782.2188 Q124.7188,782.5469 124.2188,783.2969 Q123.7344,784.0469 123.7344,785.0781 L123.7344,786.1719 Q123.7344,787.4063 124.625,788.2344 Q125.5156,789.0469 127.1094,789.0469 Q128.0469,789.0469 128.7031,788.7969 Q129.0938,788.6406 129.5156,788.2031 Q129.7813,787.9375 129.9219,787.8594 Q130.0781,787.7813 130.2813,787.7813 Q130.6094,787.7813 130.8594,788.0469 Q131.125,788.2969 131.125,788.6406 Q131.125,788.9844 130.7813,789.3906 Q130.2813,789.9688 129.4844,790.2969 Q128.4063,790.75 127.1094,790.75 Q125.5938,790.75 124.3906,790.125 Q123.4063,789.625 122.7188,788.5625 Q122.0313,787.4844 122.0313,786.2031 L122.0313,785.0469 Q122.0313,783.7188 122.6406,782.5781 Q123.2656,781.4219 124.3594,780.8125 Q125.4531,780.1875 126.6875,780.1875 Q127.4219,780.1875 128.0625,780.3594 Q128.7188,780.5156 129.2656,780.875 Z " fill="#000000"/><text fill="#000000" font-family="sans-serif" font-size="12" lengthAdjust="spacing" textLength="54" x="140.5" y="789.9102">BatteryDB</text><line style="stroke:#A80036;stroke-width:1.5;" x1="112.5" x2="196.5" y1="801" y2="801"/><line style="stroke:#A80036;stroke-width:1.5;" x1="112.5" x2="196.5" y1="809" y2="809"/><text fill="#000000" font-family="sans-serif" font-size="11" lengthAdjust="spacing" textLength="58" x="117.5" y="824.4189">+delete(bat)</text><!--MD5=[48d7298b3bd1f8b3e8f77915e881d788]
class ScooterDB--><rect codeLine="8" fill="#FEFECE" filter="url(#fgeisr8w45p8v)" height="75.6719" id="ScooterDB" style="stroke:#A80036;stroke-width:1.5;" width="114" x="261.5" y="633"/><ellipse cx="286.85" cy="649" fill="#ADD1B2" rx="11" ry="11" style="stroke:#A80036;stroke-width:1.0;"/><path d="M289.6156,644.875 Q289.7719,644.6563 289.9594,644.5469 Q290.1469,644.4375 290.3656,644.4375 Q290.7406,644.4375 290.975,644.7031 Q291.2094,644.9531 291.2094,645.5625 L291.2094,647.0156 Q291.2094,647.625 290.975,647.8906 Q290.7406,648.1563 290.3656,648.1563 Q290.0219,648.1563 289.8188,647.9531 Q289.6156,647.7656 289.5063,647.25 Q289.4594,646.8906 289.2719,646.7031 Q288.9438,646.3281 288.3344,646.1094 Q287.725,645.8906 287.1,645.8906 Q286.3344,645.8906 285.6938,646.2188 Q285.0688,646.5469 284.5688,647.2969 Q284.0844,648.0469 284.0844,649.0781 L284.0844,650.1719 Q284.0844,651.4063 284.975,652.2344 Q285.8656,653.0469 287.4594,653.0469 Q288.3969,653.0469 289.0531,652.7969 Q289.4438,652.6406 289.8656,652.2031 Q290.1313,651.9375 290.2719,651.8594 Q290.4281,651.7813 290.6313,651.7813 Q290.9594,651.7813 291.2094,652.0469 Q291.475,652.2969 291.475,652.6406 Q291.475,652.9844 291.1313,653.3906 Q290.6313,653.9688 289.8344,654.2969 Q288.7563,654.75 287.4594,654.75 Q285.9438,654.75 284.7406,654.125 Q283.7563,653.625 283.0688,652.5625 Q282.3813,651.4844 282.3813,650.2031 L282.3813,649.0469 Q282.3813,647.7188 282.9906,646.5781 Q283.6156,645.4219 284.7094,644.8125 Q285.8031,644.1875 287.0375,644.1875 Q287.7719,644.1875 288.4125,644.3594 Q289.0688,644.5156 289.6156,644.875 Z " fill="#000000"/><text fill="#000000" font-family="sans-serif" font-size="12" lengthAdjust="spacing" textLength="59" x="303.15" y="653.9102">ScooterDB</text><line style="stroke:#A80036;stroke-width:1.5;" x1="262.5" x2="374.5" y1="665" y2="665"/><line style="stroke:#A80036;stroke-width:1.5;" x1="262.5" x2="374.5" y1="673" y2="673"/><text fill="#000000" font-family="sans-serif" font-size="11" lengthAdjust="spacing" textLength="55" x="267.5" y="688.4189">+delete(sc)</text><text fill="#000000" font-family="sans-serif" font-size="11" lengthAdjust="spacing" textLength="102" x="267.5" y="702.2549">+getListOfScooters()</text><!--MD5=[f4402668d5d5bb8485350c0fdb60ac8e]
class Scooter--><rect codeLine="13" fill="#FEFECE" filter="url(#fgeisr8w45p8v)" height="144.8516" id="Scooter" style="stroke:#A80036;stroke-width:1.5;" width="295" x="7" y="428"/><ellipse cx="129.25" cy="444" fill="#ADD1B2" rx="11" ry="11" style="stroke:#A80036;stroke-width:1.0;"/><path d="M132.0156,439.875 Q132.1719,439.6563 132.3594,439.5469 Q132.5469,439.4375 132.7656,439.4375 Q133.1406,439.4375 133.375,439.7031 Q133.6094,439.9531 133.6094,440.5625 L133.6094,442.0156 Q133.6094,442.625 133.375,442.8906 Q133.1406,443.1563 132.7656,443.1563 Q132.4219,443.1563 132.2188,442.9531 Q132.0156,442.7656 131.9063,442.25 Q131.8594,441.8906 131.6719,441.7031 Q131.3438,441.3281 130.7344,441.1094 Q130.125,440.8906 129.5,440.8906 Q128.7344,440.8906 128.0938,441.2188 Q127.4688,441.5469 126.9688,442.2969 Q126.4844,443.0469 126.4844,444.0781 L126.4844,445.1719 Q126.4844,446.4063 127.375,447.2344 Q128.2656,448.0469 129.8594,448.0469 Q130.7969,448.0469 131.4531,447.7969 Q131.8438,447.6406 132.2656,447.2031 Q132.5313,446.9375 132.6719,446.8594 Q132.8281,446.7813 133.0313,446.7813 Q133.3594,446.7813 133.6094,447.0469 Q133.875,447.2969 133.875,447.6406 Q133.875,447.9844 133.5313,448.3906 Q133.0313,448.9688 132.2344,449.2969 Q131.1563,449.75 129.8594,449.75 Q128.3438,449.75 127.1406,449.125 Q126.1563,448.625 125.4688,447.5625 Q124.7813,446.4844 124.7813,445.2031 L124.7813,444.0469 Q124.7813,442.7188 125.3906,441.5781 Q126.0156,440.4219 127.1094,439.8125 Q128.2031,439.1875 129.4375,439.1875 Q130.1719,439.1875 130.8125,439.3594 Q131.4688,439.5156 132.0156,439.875 Z " fill="#000000"/><text fill="#000000" font-family="sans-serif" font-size="12" lengthAdjust="spacing" textLength="42" x="149.75" y="448.9102">Scooter</text><line style="stroke:#A80036;stroke-width:1.5;" x1="8" x2="301" y1="460" y2="460"/><text fill="#000000" font-family="sans-serif" font-size="11" lengthAdjust="spacing" textLength="70" x="13" y="475.4189">-int id_Scooter</text><text fill="#000000" font-family="sans-serif" font-size="11" lengthAdjust="spacing" textLength="53" x="13" y="489.2549">-int qrCode</text><text fill="#000000" font-family="sans-serif" font-size="11" lengthAdjust="spacing" textLength="48" x="13" y="503.0908">-int status</text><text fill="#000000" font-family="sans-serif" font-size="11" lengthAdjust="spacing" textLength="67" x="13" y="516.9268">-int id_Battery</text><text fill="#000000" font-family="sans-serif" font-size="11" lengthAdjust="spacing" textLength="59" x="13" y="530.7627">-int capacity</text><line style="stroke:#A80036;stroke-width:1.5;" x1="8" x2="301" y1="537.1797" y2="537.1797"/><text fill="#000000" font-family="sans-serif" font-size="11" lengthAdjust="spacing" textLength="283" x="13" y="552.5986">+Scooter(id_Scooter, qrCode, status, id_Battery, capacity)</text><text fill="#000000" font-family="sans-serif" font-size="11" lengthAdjust="spacing" textLength="145" x="13" y="566.4346">+Battery(id_Battery, capacity)</text><!--MD5=[7f2a9fafcebe4f099f71398fd3e2ed00]
class Pharmacy--><rect codeLine="23" fill="#FEFECE" filter="url(#fgeisr8w45p8v)" height="117.1797" id="Pharmacy" style="stroke:#A80036;stroke-width:1.5;" width="176" x="63.5" y="251"/><ellipse cx="119.75" cy="267" fill="#ADD1B2" rx="11" ry="11" style="stroke:#A80036;stroke-width:1.0;"/><path d="M122.5156,262.875 Q122.6719,262.6563 122.8594,262.5469 Q123.0469,262.4375 123.2656,262.4375 Q123.6406,262.4375 123.875,262.7031 Q124.1094,262.9531 124.1094,263.5625 L124.1094,265.0156 Q124.1094,265.625 123.875,265.8906 Q123.6406,266.1563 123.2656,266.1563 Q122.9219,266.1563 122.7188,265.9531 Q122.5156,265.7656 122.4063,265.25 Q122.3594,264.8906 122.1719,264.7031 Q121.8438,264.3281 121.2344,264.1094 Q120.625,263.8906 120,263.8906 Q119.2344,263.8906 118.5938,264.2188 Q117.9688,264.5469 117.4688,265.2969 Q116.9844,266.0469 116.9844,267.0781 L116.9844,268.1719 Q116.9844,269.4063 117.875,270.2344 Q118.7656,271.0469 120.3594,271.0469 Q121.2969,271.0469 121.9531,270.7969 Q122.3438,270.6406 122.7656,270.2031 Q123.0313,269.9375 123.1719,269.8594 Q123.3281,269.7813 123.5313,269.7813 Q123.8594,269.7813 124.1094,270.0469 Q124.375,270.2969 124.375,270.6406 Q124.375,270.9844 124.0313,271.3906 Q123.5313,271.9688 122.7344,272.2969 Q121.6563,272.75 120.3594,272.75 Q118.8438,272.75 117.6406,272.125 Q116.6563,271.625 115.9688,270.5625 Q115.2813,269.4844 115.2813,268.2031 L115.2813,267.0469 Q115.2813,265.7188 115.8906,264.5781 Q116.5156,263.4219 117.6094,262.8125 Q118.7031,262.1875 119.9375,262.1875 Q120.6719,262.1875 121.3125,262.3594 Q121.9688,262.5156 122.5156,262.875 Z " fill="#000000"/><text fill="#000000" font-family="sans-serif" font-size="12" lengthAdjust="spacing" textLength="55" x="140.25" y="271.9102">Pharmacy</text><line style="stroke:#A80036;stroke-width:1.5;" x1="64.5" x2="238.5" y1="283" y2="283"/><text fill="#000000" font-family="sans-serif" font-size="11" lengthAdjust="spacing" textLength="80" x="69.5" y="298.4189">-int id_Pharmacy</text><text fill="#000000" font-family="sans-serif" font-size="11" lengthAdjust="spacing" textLength="55" x="69.5" y="312.2549">-String nam</text><text fill="#000000" font-family="sans-serif" font-size="11" lengthAdjust="spacing" textLength="100" x="69.5" y="326.0908">-int maximumPayload</text><line style="stroke:#A80036;stroke-width:1.5;" x1="64.5" x2="238.5" y1="332.5078" y2="332.5078"/><text fill="#000000" font-family="sans-serif" font-size="11" lengthAdjust="spacing" textLength="142" x="69.5" y="347.9268">+ListScooter getListScooter()</text><text fill="#000000" font-family="sans-serif" font-size="11" lengthAdjust="spacing" textLength="164" x="69.5" y="361.7627">+RemoveScooterById(id_Scooter)</text><!--MD5=[cf0aa40e0609986c5fd5c90bfa6114f3]
class ListScooters--><rect codeLine="31" fill="#FEFECE" filter="url(#fgeisr8w45p8v)" height="61.8359" id="ListScooters" style="stroke:#A80036;stroke-width:1.5;" width="161" x="275" y="278.5"/><ellipse cx="317" cy="294.5" fill="#ADD1B2" rx="11" ry="11" style="stroke:#A80036;stroke-width:1.0;"/><path d="M319.7656,290.375 Q319.9219,290.1563 320.1094,290.0469 Q320.2969,289.9375 320.5156,289.9375 Q320.8906,289.9375 321.125,290.2031 Q321.3594,290.4531 321.3594,291.0625 L321.3594,292.5156 Q321.3594,293.125 321.125,293.3906 Q320.8906,293.6563 320.5156,293.6563 Q320.1719,293.6563 319.9688,293.4531 Q319.7656,293.2656 319.6563,292.75 Q319.6094,292.3906 319.4219,292.2031 Q319.0938,291.8281 318.4844,291.6094 Q317.875,291.3906 317.25,291.3906 Q316.4844,291.3906 315.8438,291.7188 Q315.2188,292.0469 314.7188,292.7969 Q314.2344,293.5469 314.2344,294.5781 L314.2344,295.6719 Q314.2344,296.9063 315.125,297.7344 Q316.0156,298.5469 317.6094,298.5469 Q318.5469,298.5469 319.2031,298.2969 Q319.5938,298.1406 320.0156,297.7031 Q320.2813,297.4375 320.4219,297.3594 Q320.5781,297.2813 320.7813,297.2813 Q321.1094,297.2813 321.3594,297.5469 Q321.625,297.7969 321.625,298.1406 Q321.625,298.4844 321.2813,298.8906 Q320.7813,299.4688 319.9844,299.7969 Q318.9063,300.25 317.6094,300.25 Q316.0938,300.25 314.8906,299.625 Q313.9063,299.125 313.2188,298.0625 Q312.5313,296.9844 312.5313,295.7031 L312.5313,294.5469 Q312.5313,293.2188 313.1406,292.0781 Q313.7656,290.9219 314.8594,290.3125 Q315.9531,289.6875 317.1875,289.6875 Q317.9219,289.6875 318.5625,289.8594 Q319.2188,290.0156 319.7656,290.375 Z " fill="#000000"/><text fill="#000000" font-family="sans-serif" font-size="12" lengthAdjust="spacing" textLength="69" x="337" y="299.4102">ListScooters</text><line style="stroke:#A80036;stroke-width:1.5;" x1="276" x2="435" y1="310.5" y2="310.5"/><line style="stroke:#A80036;stroke-width:1.5;" x1="276" x2="435" y1="318.5" y2="318.5"/><text fill="#000000" font-family="sans-serif" font-size="11" lengthAdjust="spacing" textLength="149" x="281" y="333.9189">+getListOfScooter(Scooter sc)</text><!--MD5=[bac027668d924653165cf48795e5a572]
class RemoveScooterController--><rect codeLine="35" fill="#FEFECE" filter="url(#fgeisr8w45p8v)" height="75.6719" id="RemoveScooterController" style="stroke:#A80036;stroke-width:1.5;" width="174" x="64.5" y="115"/><ellipse cx="79.5" cy="131" fill="#ADD1B2" rx="11" ry="11" style="stroke:#A80036;stroke-width:1.0;"/><path d="M82.2656,126.875 Q82.4219,126.6563 82.6094,126.5469 Q82.7969,126.4375 83.0156,126.4375 Q83.3906,126.4375 83.625,126.7031 Q83.8594,126.9531 83.8594,127.5625 L83.8594,129.0156 Q83.8594,129.625 83.625,129.8906 Q83.3906,130.1563 83.0156,130.1563 Q82.6719,130.1563 82.4688,129.9531 Q82.2656,129.7656 82.1563,129.25 Q82.1094,128.8906 81.9219,128.7031 Q81.5938,128.3281 80.9844,128.1094 Q80.375,127.8906 79.75,127.8906 Q78.9844,127.8906 78.3438,128.2188 Q77.7188,128.5469 77.2188,129.2969 Q76.7344,130.0469 76.7344,131.0781 L76.7344,132.1719 Q76.7344,133.4063 77.625,134.2344 Q78.5156,135.0469 80.1094,135.0469 Q81.0469,135.0469 81.7031,134.7969 Q82.0938,134.6406 82.5156,134.2031 Q82.7813,133.9375 82.9219,133.8594 Q83.0781,133.7813 83.2813,133.7813 Q83.6094,133.7813 83.8594,134.0469 Q84.125,134.2969 84.125,134.6406 Q84.125,134.9844 83.7813,135.3906 Q83.2813,135.9688 82.4844,136.2969 Q81.4063,136.75 80.1094,136.75 Q78.5938,136.75 77.3906,136.125 Q76.4063,135.625 75.7188,134.5625 Q75.0313,133.4844 75.0313,132.2031 L75.0313,131.0469 Q75.0313,129.7188 75.6406,128.5781 Q76.2656,127.4219 77.3594,126.8125 Q78.4531,126.1875 79.6875,126.1875 Q80.4219,126.1875 81.0625,126.3594 Q81.7188,126.5156 82.2656,126.875 Z " fill="#000000"/><text fill="#000000" font-family="sans-serif" font-size="12" lengthAdjust="spacing" textLength="142" x="93.5" y="135.9102">RemoveScooterController</text><line style="stroke:#A80036;stroke-width:1.5;" x1="65.5" x2="237.5" y1="147" y2="147"/><line style="stroke:#A80036;stroke-width:1.5;" x1="65.5" x2="237.5" y1="155" y2="155"/><text fill="#000000" font-family="sans-serif" font-size="11" lengthAdjust="spacing" textLength="102" x="70.5" y="170.4189">+getListOfScooters()</text><text fill="#000000" font-family="sans-serif" font-size="11" lengthAdjust="spacing" textLength="161" x="70.5" y="184.2549">+removeScooterById(id_Scooter)</text><!--MD5=[6e833f4d304e2534fd2d5c5fc5d919d8]
class RemoveScooterUI--><rect codeLine="40" fill="#FEFECE" filter="url(#fgeisr8w45p8v)" height="48" id="RemoveScooterUI" style="stroke:#A80036;stroke-width:1.5;" width="132" x="85.5" y="7"/><ellipse cx="100.5" cy="23" fill="#ADD1B2" rx="11" ry="11" style="stroke:#A80036;stroke-width:1.0;"/><path d="M103.2656,18.875 Q103.4219,18.6563 103.6094,18.5469 Q103.7969,18.4375 104.0156,18.4375 Q104.3906,18.4375 104.625,18.7031 Q104.8594,18.9531 104.8594,19.5625 L104.8594,21.0156 Q104.8594,21.625 104.625,21.8906 Q104.3906,22.1563 104.0156,22.1563 Q103.6719,22.1563 103.4688,21.9531 Q103.2656,21.7656 103.1563,21.25 Q103.1094,20.8906 102.9219,20.7031 Q102.5938,20.3281 101.9844,20.1094 Q101.375,19.8906 100.75,19.8906 Q99.9844,19.8906 99.3438,20.2188 Q98.7188,20.5469 98.2188,21.2969 Q97.7344,22.0469 97.7344,23.0781 L97.7344,24.1719 Q97.7344,25.4063 98.625,26.2344 Q99.5156,27.0469 101.1094,27.0469 Q102.0469,27.0469 102.7031,26.7969 Q103.0938,26.6406 103.5156,26.2031 Q103.7813,25.9375 103.9219,25.8594 Q104.0781,25.7813 104.2813,25.7813 Q104.6094,25.7813 104.8594,26.0469 Q105.125,26.2969 105.125,26.6406 Q105.125,26.9844 104.7813,27.3906 Q104.2813,27.9688 103.4844,28.2969 Q102.4063,28.75 101.1094,28.75 Q99.5938,28.75 98.3906,28.125 Q97.4063,27.625 96.7188,26.5625 Q96.0313,25.4844 96.0313,24.2031 L96.0313,23.0469 Q96.0313,21.7188 96.6406,20.5781 Q97.2656,19.4219 98.3594,18.8125 Q99.4531,18.1875 100.6875,18.1875 Q101.4219,18.1875 102.0625,18.3594 Q102.7188,18.5156 103.2656,18.875 Z " fill="#000000"/><text fill="#000000" font-family="sans-serif" font-size="12" lengthAdjust="spacing" textLength="100" x="114.5" y="27.9102">RemoveScooterUI</text><line style="stroke:#A80036;stroke-width:1.5;" x1="86.5" x2="216.5" y1="39" y2="39"/><line style="stroke:#A80036;stroke-width:1.5;" x1="86.5" x2="216.5" y1="47" y2="47"/><!--MD5=[79eb2d862cef9730b5f9dcab29e35f17]
class Battery--><rect fill="#FEFECE" filter="url(#fgeisr8w45p8v)" height="48" id="Battery" style="stroke:#A80036;stroke-width:1.5;" width="69" x="120" y="647"/><ellipse cx="135" cy="663" fill="#ADD1B2" rx="11" ry="11" style="stroke:#A80036;stroke-width:1.0;"/><path d="M137.7656,658.875 Q137.9219,658.6563 138.1094,658.5469 Q138.2969,658.4375 138.5156,658.4375 Q138.8906,658.4375 139.125,658.7031 Q139.3594,658.9531 139.3594,659.5625 L139.3594,661.0156 Q139.3594,661.625 139.125,661.8906 Q138.8906,662.1563 138.5156,662.1563 Q138.1719,662.1563 137.9688,661.9531 Q137.7656,661.7656 137.6563,661.25 Q137.6094,660.8906 137.4219,660.7031 Q137.0938,660.3281 136.4844,660.1094 Q135.875,659.8906 135.25,659.8906 Q134.4844,659.8906 133.8438,660.2188 Q133.2188,660.5469 132.7188,661.2969 Q132.2344,662.0469 132.2344,663.0781 L132.2344,664.1719 Q132.2344,665.4063 133.125,666.2344 Q134.0156,667.0469 135.6094,667.0469 Q136.5469,667.0469 137.2031,666.7969 Q137.5938,666.6406 138.0156,666.2031 Q138.2813,665.9375 138.4219,665.8594 Q138.5781,665.7813 138.7813,665.7813 Q139.1094,665.7813 139.3594,666.0469 Q139.625,666.2969 139.625,666.6406 Q139.625,666.9844 139.2813,667.3906 Q138.7813,667.9688 137.9844,668.2969 Q136.9063,668.75 135.6094,668.75 Q134.0938,668.75 132.8906,668.125 Q131.9063,667.625 131.2188,666.5625 Q130.5313,665.4844 130.5313,664.2031 L130.5313,663.0469 Q130.5313,661.7188 131.1406,660.5781 Q131.7656,659.4219 132.8594,658.8125 Q133.9531,658.1875 135.1875,658.1875 Q135.9219,658.1875 136.5625,658.3594 Q137.2188,658.5156 137.7656,658.875 Z " fill="#000000"/><text fill="#000000" font-family="sans-serif" font-size="12" lengthAdjust="spacing" textLength="37" x="149" y="667.9102">Battery</text><line style="stroke:#A80036;stroke-width:1.5;" x1="121" x2="188" y1="679" y2="679"/><line style="stroke:#A80036;stroke-width:1.5;" x1="121" x2="188" y1="687" y2="687"/><!--MD5=[d51a3d7ceb60387716e9812879733fde]
link RemoveScooterUI to RemoveScooterController--><path codeLine="43" d="M151.5,55.14 C151.5,70.58 151.5,91.33 151.5,109.67 " fill="none" id="RemoveScooterUI-to-RemoveScooterController" style="stroke:#A80036;stroke-width:1.0;stroke-dasharray:7.0,7.0;"/><polygon fill="#A80036" points="151.5,114.77,155.5,105.77,151.5,109.77,147.5,105.77,151.5,114.77" style="stroke:#A80036;stroke-width:1.0;"/><!--MD5=[e77a9547af29397bccc2ad2dff2db48e]
link RemoveScooterController to Pharmacy--><path codeLine="44" d="M151.5,191.01 C151.5,207.41 151.5,227.17 151.5,245.76 " fill="none" id="RemoveScooterController-to-Pharmacy" style="stroke:#A80036;stroke-width:1.0;stroke-dasharray:7.0,7.0;"/><polygon fill="#A80036" points="151.5,250.97,155.5,241.97,151.5,245.97,147.5,241.97,151.5,250.97" style="stroke:#A80036;stroke-width:1.0;"/><!--MD5=[d22606074f495e8e87c8175ee249c223]
link RemoveScooterController to ListScooters--><path codeLine="45" d="M200.36,191.01 C234.09,216.55 278.58,250.24 311.26,275 " fill="none" id="RemoveScooterController-to-ListScooters" style="stroke:#A80036;stroke-width:1.0;stroke-dasharray:7.0,7.0;"/><polygon fill="#A80036" points="315.59,278.27,310.8245,269.6509,311.602,275.254,305.9989,276.0316,315.59,278.27" style="stroke:#A80036;stroke-width:1.0;"/><!--MD5=[174c6eec2fde4b75b3a5cdbf30f8f668]
link RemoveScooterController to Scooter--><path codeLine="46" d="M94.55,191.1 C75.22,206.99 55.91,227.37 45.5,251 C24.54,298.59 27.86,319.08 45.5,368 C52.59,387.67 64.05,406.49 76.93,423.42 " fill="none" id="RemoveScooterController-to-Scooter" style="stroke:#A80036;stroke-width:1.0;stroke-dasharray:7.0,7.0;"/><polygon fill="#A80036" points="80.23,427.68,77.8764,418.1165,77.1662,423.7286,71.5541,423.0185,80.23,427.68" style="stroke:#A80036;stroke-width:1.0;"/><!--MD5=[f7b92c2909ed283152f332ba3421c77a]
link ListScooters to Scooter--><path codeLine="48" d="M323.21,340.87 C299.21,363.43 265.4,395.22 234.34,424.43 " fill="none" id="ListScooters-to-Scooter" style="stroke:#A80036;stroke-width:1.0;"/><polygon fill="#A80036" points="230.56,427.98,239.862,424.7439,234.2081,424.5608,234.3913,418.9069,230.56,427.98" style="stroke:#A80036;stroke-width:1.0;"/><text fill="#000000" font-family="sans-serif" font-size="13" lengthAdjust="spacing" textLength="7" x="309.3875" y="361.9192">1</text><text fill="#000000" font-family="sans-serif" font-size="13" lengthAdjust="spacing" textLength="5" x="233.1459" y="417.1973">*</text><!--MD5=[28fe83f6f1782bf4bcd7e1a5f347f8f2]
link ListScooters to ScooterDB--><path codeLine="49" d="M352.41,340.53 C345.83,404.47 330.42,554.22 322.85,627.75 " fill="none" id="ListScooters-to-ScooterDB" style="stroke:#A80036;stroke-width:1.0;stroke-dasharray:7.0,7.0;"/><polygon fill="#A80036" points="322.32,632.91,327.2249,624.3694,322.8345,627.9365,319.2673,623.5462,322.32,632.91" style="stroke:#A80036;stroke-width:1.0;"/><!--MD5=[cf0177e8d253526d8f3f464530787061]
link Scooter to Battery--><path codeLine="50" d="M154.5,573.45 C154.5,597.49 154.5,622.89 154.5,641.6 " fill="none" id="Scooter-to-Battery" style="stroke:#A80036;stroke-width:1.0;"/><polygon fill="#A80036" points="154.5,646.7,158.5,637.7,154.5,641.7,150.5,637.7,154.5,646.7" style="stroke:#A80036;stroke-width:1.0;"/><!--MD5=[49bff876dcab90bc5ce1b627ce018eb3]
link Scooter to ScooterDB--><path codeLine="51" d="M224.53,573.45 C242.98,592.41 262.26,612.22 278.52,628.92 " fill="none" id="Scooter-to-ScooterDB" style="stroke:#A80036;stroke-width:1.0;stroke-dasharray:7.0,7.0;"/><polygon fill="#A80036" points="282.16,632.66,278.7364,623.4254,278.6677,629.0818,273.0112,629.0131,282.16,632.66" style="stroke:#A80036;stroke-width:1.0;"/><!--MD5=[bfe33b7c5c17f964767a6bfa2cbee78c]
link Battery to BatteryDB--><path codeLine="52" d="M154.5,695.29 C154.5,714.39 154.5,741.72 154.5,763.53 " fill="none" id="Battery-to-BatteryDB" style="stroke:#A80036;stroke-width:1.0;stroke-dasharray:7.0,7.0;"/><polygon fill="#A80036" points="154.5,768.66,158.5,759.66,154.5,763.66,150.5,759.66,154.5,768.66" style="stroke:#A80036;stroke-width:1.0;"/><!--MD5=[0e006b892cdcf93b8ca88a20ac296336]
@startuml

skinparam classAttributeIconSize 0

class BatteryDB {
    +delete(bat)
}

class ScooterDB {
    +delete(sc)
    +getListOfScooters()
}

class Scooter {
  -int id_Scooter
  -int qrCode
  -int status
  -int id_Battery
  -int capacity
  +Scooter(id_Scooter, qrCode, status, id_Battery, capacity)
  +Battery(id_Battery, capacity)
}

class Pharmacy {
  -int id_Pharmacy
  -String nam
  -int maximumPayload
  +ListScooter getListScooter()
  +RemoveScooterById(id_Scooter)
}

class ListScooters {
  +getListOfScooter(Scooter sc)
}

class RemoveScooterController {
    +getListOfScooters()
    +removeScooterById(id_Scooter)
}

class RemoveScooterUI {
}

RemoveScooterUI ..> RemoveScooterController
RemoveScooterController ..> Pharmacy
RemoveScooterController ..> ListScooters
RemoveScooterController ..> Scooter

ListScooters "1" - -> "*" Scooter
ListScooters ..> ScooterDB
Scooter - -> Battery
Scooter ..> ScooterDB
Battery ..> BatteryDB

@enduml

PlantUML version 1.2021.00(Sun Jan 10 10:25:05 WET 2021)
(GPL source distribution)
Java Runtime: Java(TM) SE Runtime Environment
JVM: Java HotSpot(TM) 64-Bit Server VM
Default Encoding: Cp1252
Language: pt
Country: PT
--></g></svg>