<?xml version="1.0" encoding="UTF-8" standalone="no"?><svg xmlns="http://www.w3.org/2000/svg" xmlns:xlink="http://www.w3.org/1999/xlink" contentScriptType="application/ecmascript" contentStyleType="text/css" height="2732px" preserveAspectRatio="none" style="width:793px;height:2732px;" version="1.1" viewBox="0 0 793 2732" width="793px" zoomAndPan="magnify"><defs><filter height="300%" id="ffkui56rjcl5o" width="300%" x="-1" y="-1"><feGaussianBlur result="blurOut" stdDeviation="2.0"/><feColorMatrix in="blurOut" result="blurOut2" type="matrix" values="0 0 0 0 0 0 0 0 0 0 0 0 0 0 0 0 0 0 .4 0"/><feOffset dx="4.0" dy="4.0" in="blurOut2" result="blurOut3"/><feBlend in="SourceGraphic" in2="blurOut3" mode="normal"/></filter></defs><g><!--MD5=[f83ae91a690dfc657e1c5fbbd818f13d]
entity a--><ellipse cx="65" cy="1823" fill="#FEFECE" filter="url(#ffkui56rjcl5o)" rx="8" ry="8" style="stroke:#A80036;stroke-width:1.5;"/><path d="M65,1831 L65,1858 M52,1839 L78,1839 M65,1858 L52,1873 M65,1858 L78,1873 " fill="none" filter="url(#ffkui56rjcl5o)" style="stroke:#A80036;stroke-width:1.5;"/><text fill="#000000" font-family="sans-serif" font-size="14" lengthAdjust="spacingAndGlyphs" textLength="83" x="23.5" y="1893.0332">Administrator</text><!--MD5=[8e9b2d9d80e066cced8e5d90e9bdea61]
entity c--><ellipse cx="65" cy="751" fill="#FEFECE" filter="url(#ffkui56rjcl5o)" rx="8" ry="8" style="stroke:#A80036;stroke-width:1.5;"/><path d="M65,759 L65,786 M52,767 L78,767 M65,786 L52,801 M65,786 L78,801 " fill="none" filter="url(#ffkui56rjcl5o)" style="stroke:#A80036;stroke-width:1.5;"/><text fill="#000000" font-family="sans-serif" font-size="14" lengthAdjust="spacingAndGlyphs" textLength="47" x="41.5" y="821.0332">Courier</text><!--MD5=[979c31051cf8d07bdf927ed864b836ec]
entity cl--><ellipse cx="65" cy="246" fill="#FEFECE" filter="url(#ffkui56rjcl5o)" rx="8" ry="8" style="stroke:#A80036;stroke-width:1.5;"/><path d="M65,254 L65,281 M52,262 L78,262 M65,281 L52,296 M65,281 L78,296 " fill="none" filter="url(#ffkui56rjcl5o)" style="stroke:#A80036;stroke-width:1.5;"/><text fill="#000000" font-family="sans-serif" font-size="14" lengthAdjust="spacingAndGlyphs" textLength="36" x="47" y="316.0332">Client</text><!--MD5=[7d46d6cd919e02e6168a09ad91eae8b4]
entity u--><ellipse cx="65" cy="14" fill="#FEFECE" filter="url(#ffkui56rjcl5o)" rx="8" ry="8" style="stroke:#A80036;stroke-width:1.5;"/><path d="M65,22 L65,49 M52,30 L78,30 M65,49 L52,64 M65,49 L78,64 " fill="none" filter="url(#ffkui56rjcl5o)" style="stroke:#A80036;stroke-width:1.5;"/><text fill="#000000" font-family="sans-serif" font-size="14" lengthAdjust="spacingAndGlyphs" textLength="118" x="6" y="84.0332">Unregistered_User</text><ellipse cx="483.0335" cy="1177.0067" fill="#FEFECE" filter="url(#ffkui56rjcl5o)" rx="198.0335" ry="42.0067" style="stroke:#A80036;stroke-width:1.5;"/><text fill="#000000" font-family="sans-serif" font-size="14" lengthAdjust="spacingAndGlyphs" textLength="380" x="293.0335" y="1182.3114">NANB9-22 - Add or update a courier to/from a list of couriers</text><ellipse cx="483.1681" cy="46.2336" fill="#FEFECE" filter="url(#ffkui56rjcl5o)" rx="99.1681" ry="22.2336" style="stroke:#A80036;stroke-width:1.5;"/><text fill="#000000" font-family="sans-serif" font-size="14" lengthAdjust="spacingAndGlyphs" textLength="171" x="397.6681" y="51.5383">NANB9-23 - Register Client</text><ellipse cx="483.0214" cy="1285.8043" fill="#FEFECE" filter="url(#ffkui56rjcl5o)" rx="144.5214" ry="31.3043" style="stroke:#A80036;stroke-width:1.5;"/><text fill="#000000" font-family="sans-serif" font-size="14" lengthAdjust="spacingAndGlyphs" textLength="269" x="348.5214" y="1291.109">NANB9-8 - Add scooter to a list of scooters</text><ellipse cx="483.1077" cy="1391.1215" fill="#FEFECE" filter="url(#ffkui56rjcl5o)" rx="178.6077" ry="38.1215" style="stroke:#A80036;stroke-width:1.5;"/><text fill="#000000" font-family="sans-serif" font-size="14" lengthAdjust="spacingAndGlyphs" textLength="340" x="313.1077" y="1396.4262">NANB9-118 - Remove a scooter from a list of scooters</text><ellipse cx="483.0918" cy="1502.2184" fill="#FEFECE" filter="url(#ffkui56rjcl5o)" rx="179.0918" ry="38.2184" style="stroke:#A80036;stroke-width:1.5;"/><text fill="#000000" font-family="sans-serif" font-size="14" lengthAdjust="spacingAndGlyphs" textLength="341" x="312.5918" y="1507.523">NANB9-9 - Register a new pharmacy and set park limit</text><ellipse cx="483.2128" cy="532.0426" fill="#FEFECE" filter="url(#ffkui56rjcl5o)" rx="150.7128" ry="32.5426" style="stroke:#A80036;stroke-width:1.5;"/><text fill="#000000" font-family="sans-serif" font-size="14" lengthAdjust="spacingAndGlyphs" textLength="282" x="342.2128" y="537.3472">NANB9-14 - Charge scooter when it's parked</text><ellipse cx="483.0573" cy="136.2115" fill="#FEFECE" filter="url(#ffkui56rjcl5o)" rx="154.0573" ry="33.2115" style="stroke:#A80036;stroke-width:1.5;"/><text fill="#000000" font-family="sans-serif" font-size="14" lengthAdjust="spacingAndGlyphs" textLength="289" x="338.5573" y="141.5162">NANB9-17 - Make a request for home delivery</text><ellipse cx="483.097" cy="645.1194" fill="#FEFECE" filter="url(#ffkui56rjcl5o)" rx="216.097" ry="45.6194" style="stroke:#A80036;stroke-width:1.5;"/><text fill="#000000" font-family="sans-serif" font-size="14" lengthAdjust="spacingAndGlyphs" textLength="417" x="274.597" y="650.4241">NANB9-18 - Notify the courier when the scooter is parked correctly</text><ellipse cx="483.165" cy="1601.233" fill="#FEFECE" filter="url(#ffkui56rjcl5o)" rx="119.165" ry="26.233" style="stroke:#A80036;stroke-width:1.5;"/><text fill="#000000" font-family="sans-serif" font-size="14" lengthAdjust="spacingAndGlyphs" textLength="215" x="375.665" y="1606.5377">NANB9-46 - Simulate Park System</text><ellipse cx="482.9506" cy="1685.0901" fill="#FEFECE" filter="url(#ffkui56rjcl5o)" rx="100.9506" ry="22.5901" style="stroke:#A80036;stroke-width:1.5;"/><text fill="#000000" font-family="sans-serif" font-size="14" lengthAdjust="spacingAndGlyphs" textLength="175" x="395.4506" y="1690.3948">NANB9-47 - Manage Stocks</text><ellipse cx="482.7614" cy="1767.8523" fill="#FEFECE" filter="url(#ffkui56rjcl5o)" rx="112.2614" ry="24.8523" style="stroke:#A80036;stroke-width:1.5;"/><text fill="#000000" font-family="sans-serif" font-size="14" lengthAdjust="spacingAndGlyphs" textLength="200" x="382.7614" y="1773.157">NANB9-158 - Transfer Products</text><ellipse cx="482.8167" cy="229.8633" fill="#FEFECE" filter="url(#ffkui56rjcl5o)" rx="117.3167" ry="25.8633" style="stroke:#A80036;stroke-width:1.5;"/><text fill="#000000" font-family="sans-serif" font-size="14" lengthAdjust="spacingAndGlyphs" textLength="211" x="377.3167" y="235.168">NANB9-159 - Buy With Backorder</text><ellipse cx="483.091" cy="1854.9182" fill="#FEFECE" filter="url(#ffkui56rjcl5o)" rx="120.091" ry="26.4182" style="stroke:#A80036;stroke-width:1.5;"/><text fill="#000000" font-family="sans-serif" font-size="14" lengthAdjust="spacingAndGlyphs" textLength="217" x="374.591" y="1860.2229">NANB9-90-94 - User Login System</text><ellipse cx="483.1186" cy="1961.9237" fill="#FEFECE" filter="url(#ffkui56rjcl5o)" rx="215.1186" ry="45.4237" style="stroke:#A80036;stroke-width:1.5;"/><text fill="#000000" font-family="sans-serif" font-size="14" lengthAdjust="spacingAndGlyphs" textLength="415" x="275.6186" y="1967.2284">NANB9-12 - Want to know the most efficient path for each delivery</text><ellipse cx="483.0851" cy="782.917" fill="#FEFECE" filter="url(#ffkui56rjcl5o)" rx="275.0851" ry="57.417" style="stroke:#A80036;stroke-width:1.5;"/><text fill="#000000" font-family="sans-serif" font-size="14" lengthAdjust="spacingAndGlyphs" textLength="537" x="214.5851" y="788.2217">NANB9-13 - Know the amount of energy required to perform a delivery run by scooter</text><ellipse cx="482.9693" cy="2072.1939" fill="#FEFECE" filter="url(#ffkui56rjcl5o)" rx="136.4693" ry="29.6939" style="stroke:#A80036;stroke-width:1.5;"/><text fill="#000000" font-family="sans-serif" font-size="14" lengthAdjust="spacingAndGlyphs" textLength="252" x="356.9693" y="2077.4986">NANB9-27 - Mark the order as delivered</text><ellipse cx="482.753" cy="2180.7506" fill="#FEFECE" filter="url(#ffkui56rjcl5o)" rx="209.253" ry="44.2506" style="stroke:#A80036;stroke-width:1.5;"/><text fill="#000000" font-family="sans-serif" font-size="14" lengthAdjust="spacingAndGlyphs" textLength="403" x="281.253" y="2186.0553">NANB9-20 - Generate an invoice and sent by e-mail to the client</text><ellipse cx="483.0142" cy="324.9028" fill="#FEFECE" filter="url(#ffkui56rjcl5o)" rx="155.0142" ry="33.4028" style="stroke:#A80036;stroke-width:1.5;"/><text fill="#000000" font-family="sans-serif" font-size="14" lengthAdjust="spacingAndGlyphs" textLength="291" x="337.5142" y="330.2075">NANB9-24 - Know the available earned credits</text><ellipse cx="483.1723" cy="913.2345" fill="#FEFECE" filter="url(#ffkui56rjcl5o)" rx="176.6723" ry="37.7345" style="stroke:#A80036;stroke-width:1.5;"/><text fill="#000000" font-family="sans-serif" font-size="14" lengthAdjust="spacingAndGlyphs" textLength="336" x="315.1723" y="918.5391">NANB9-147 - Notify client when the delivery run starts</text><ellipse cx="483.1306" cy="429.2261" fill="#FEFECE" filter="url(#ffkui56rjcl5o)" rx="164.1306" ry="35.2261" style="stroke:#A80036;stroke-width:1.5;"/><text fill="#000000" font-family="sans-serif" font-size="14" lengthAdjust="spacingAndGlyphs" textLength="310" x="328.1306" y="434.5308">NANB9-152 - Pay for online delivery using credits</text><ellipse cx="483.029" cy="2299.1058" fill="#FEFECE" filter="url(#ffkui56rjcl5o)" rx="181.029" ry="38.6058" style="stroke:#A80036;stroke-width:1.5;"/><text fill="#000000" font-family="sans-serif" font-size="14" lengthAdjust="spacingAndGlyphs" textLength="345" x="310.529" y="2304.4105">NANB9-158 - Transfer products from other pharmacies</text><ellipse cx="483.0983" cy="1043.2197" fill="#FEFECE" filter="url(#ffkui56rjcl5o)" rx="274.0983" ry="57.2197" style="stroke:#A80036;stroke-width:1.5;"/><text fill="#000000" font-family="sans-serif" font-size="14" lengthAdjust="spacingAndGlyphs" textLength="535" x="215.5983" y="1048.5244">NANB9-165 - Know the amount of energy required to perform a delivery run by drone</text><ellipse cx="483.0185" cy="2408.8037" fill="#FEFECE" filter="url(#ffkui56rjcl5o)" rx="167.0185" ry="35.8037" style="stroke:#A80036;stroke-width:1.5;"/><text fill="#000000" font-family="sans-serif" font-size="14" lengthAdjust="spacingAndGlyphs" textLength="316" x="325.0185" y="2414.1084">NANB9-160 - Add, remove or update list of drones</text><ellipse cx="482.7944" cy="2542.1589" fill="#FEFECE" filter="url(#ffkui56rjcl5o)" rx="298.7944" ry="62.1589" style="stroke:#A80036;stroke-width:1.5;"/><text fill="#000000" font-family="sans-serif" font-size="14" lengthAdjust="spacingAndGlyphs" textLength="585" x="190.2944" y="2547.4636">NANB9-217 - Calculate the influence of weather on the energy requirements of a delivery run</text><ellipse cx="483.2208" cy="2680.1442" fill="#FEFECE" filter="url(#ffkui56rjcl5o)" rx="191.2208" ry="40.6442" style="stroke:#A80036;stroke-width:1.5;"/><text fill="#000000" font-family="sans-serif" font-size="14" lengthAdjust="spacingAndGlyphs" textLength="366" x="300.2208" y="2685.4488">NANB9-213 - Want to be able to use the app with file input</text><!--MD5=[df7cd49fcedf1d73d984530edbb0d184]
link a to UC1--><path d="M68.065,1813.356 C75.1395,1688.23 102.6357,1319.18 184,1237 C210.473,1210.26 245.315,1193.76 281.812,1183.87 " fill="none" id="a-to-UC1" style="stroke:#A80036;stroke-width:1.0;"/><polygon fill="#A80036" points="286.737,1182.58,277.0156,1181.0009,281.9015,1183.8518,279.0505,1188.7377,286.737,1182.58" style="stroke:#A80036;stroke-width:1.0;"/><!--MD5=[ce2247ea231441ce78fd7a3347e9db83]
link u to UC2--><path d="M124.281,46 C190.033,46 298.246,46 378.463,46 " fill="none" id="u-to-UC2" style="stroke:#A80036;stroke-width:1.0;"/><polygon fill="#A80036" points="383.706,46,374.706,42,378.706,46,374.706,50,383.706,46" style="stroke:#A80036;stroke-width:1.0;"/><!--MD5=[edf70f88007b3901b64f31ed49bfd97b]
link a to UC3--><path d="M69.5956,1813.261 C80.0642,1701.92 114.296,1401.82 184,1336 C224.922,1297.36 283.885,1282.32 338.58,1277.9 " fill="none" id="a-to-UC3" style="stroke:#A80036;stroke-width:1.0;"/><polygon fill="#A80036" points="343.859,1277.5,334.5848,1274.185,338.873,1277.8743,335.1837,1282.1625,343.859,1277.5" style="stroke:#A80036;stroke-width:1.0;"/><!--MD5=[ced53a2e1ee50106e9ee477c87b6a0fe]
link a to UC4--><path d="M72.4045,1813.495 C87.6888,1719.93 129.151,1496.83 184,1447 C215.637,1418.26 257.185,1402.11 299.174,1393.47 " fill="none" id="a-to-UC4" style="stroke:#A80036;stroke-width:1.0;"/><polygon fill="#A80036" points="304.297,1392.45,294.6897,1390.2819,299.393,1393.4251,296.2499,1398.1283,304.297,1392.45" style="stroke:#A80036;stroke-width:1.0;"/><!--MD5=[6db5176ff125ae436d96dc8994641ca6]
link a to UC5--><path d="M70.0194,1813.406 C78.6505,1748.287 105.1043,1623.01 184,1558 C216.598,1531.14 258.037,1515.62 299.573,1506.96 " fill="none" id="a-to-UC5" style="stroke:#A80036;stroke-width:1.0;"/><polygon fill="#A80036" points="304.638,1505.94,295.0247,1503.7989,299.7368,1506.9288,296.6068,1511.6409,304.638,1505.94" style="stroke:#A80036;stroke-width:1.0;"/><!--MD5=[be446986d62d845f7e8321f52bb108a8]
link c to UC6--><path d="M78.5426,741.33 C94.8883,694.63 128.178,620.44 184,582 C225.561,553.38 277.966,539.21 327.196,532.67 " fill="none" id="c-to-UC6" style="stroke:#A80036;stroke-width:1.0;"/><polygon fill="#A80036" points="332.256,532.02,322.8211,529.1946,327.2964,532.6546,323.8365,537.1299,332.256,532.02" style="stroke:#A80036;stroke-width:1.0;"/><!--MD5=[6d9e86bbaf41b1aecfd087c4468b74b0]
link cl to UC7--><path d="M83.3665,260.07 C104.9026,238.99 143.722,204.66 184,187 C230.01,166.83 283.271,154.61 331.931,147.22 " fill="none" id="cl-to-UC7" style="stroke:#A80036;stroke-width:1.0;"/><polygon fill="#A80036" points="336.927,146.47,327.4354,143.8413,331.9817,147.2075,328.6155,151.7538,336.927,146.47" style="stroke:#A80036;stroke-width:1.0;"/><!--MD5=[32406a9a5857d0c21297695dad0afb03]
link c to UC8--><path d="M88.593,765.13 C111.398,747.98 148.263,722.58 184,708 C220.785,693 261.644,681.37 301.018,672.44 " fill="none" id="c-to-UC8" style="stroke:#A80036;stroke-width:1.0;"/><polygon fill="#A80036" points="306.312,671.25,296.6541,669.3198,301.4336,672.3459,298.4075,677.1253,306.312,671.25" style="stroke:#A80036;stroke-width:1.0;"/><!--MD5=[1d5e614dd8463a8829c087e6e23322a4]
link a to UC9--><path d="M77.1747,1813.47 C92.6152,1764.684 125.434,1685.3 184,1645 C235.438,1609.6 303.717,1597.65 361.939,1594.98 " fill="none" id="a-to-UC9" style="stroke:#A80036;stroke-width:1.0;"/><polygon fill="#A80036" points="367.183,1594.76,358.0251,1591.136,362.1873,1594.967,358.3563,1599.1291,367.183,1594.76" style="stroke:#A80036;stroke-width:1.0;"/><!--MD5=[25b417a96d9bfabd8a6cff401c5eb3e6]
link a to UC10--><path d="M92.4332,1813.266 C113.479,1783.793 145.702,1746.1 184,1726 C243.258,1694.9 317.861,1684.66 377.598,1682.19 " fill="none" id="a-to-UC10" style="stroke:#A80036;stroke-width:1.0;"/><polygon fill="#A80036" points="382.601,1682,373.4556,1678.3446,377.6046,1682.1899,373.7594,1686.3389,382.601,1682" style="stroke:#A80036;stroke-width:1.0;"/><!--MD5=[a074ecc9c0856559a9d972dac2aab8fa]
link a to UC11--><path d="M106.543,1837.431 C128.996,1828.328 157.626,1817.737 184,1811 C245.821,1795.207 316.439,1784.699 373.41,1778.026 " fill="none" id="a-to-UC11" style="stroke:#A80036;stroke-width:1.0;"/><polygon fill="#A80036" points="378.531,1777.432,369.1294,1774.4978,373.5644,1778.0092,370.053,1782.4443,378.531,1777.432" style="stroke:#A80036;stroke-width:1.0;"/><!--MD5=[5eef6d72f6bfd2e37e543cbbd1de5f49]
link cl to UC12--><path d="M83.0832,276.03 C131.497,270.44 272.612,254.16 373.244,242.55 " fill="none" id="cl-to-UC12" style="stroke:#A80036;stroke-width:1.0;"/><polygon fill="#A80036" points="378.306,241.96,368.9073,239.0165,373.3389,242.5324,369.8231,246.964,378.306,241.96" style="stroke:#A80036;stroke-width:1.0;"/><!--MD5=[b5f79638d220dd8b3e2457da3851d219]
link a to UC13--><path d="M106.645,1855 C164.275,1855 272.223,1855 357.614,1855 " fill="none" id="a-to-UC13" style="stroke:#A80036;stroke-width:1.0;"/><polygon fill="#A80036" points="362.69,1855,353.69,1851,357.69,1855,353.69,1859,362.69,1855" style="stroke:#A80036;stroke-width:1.0;"/><!--MD5=[663b0cc1c6b70c3ab4c5e4eb39087f2e]
link a to UC14--><path d="M106.727,1871.893 C129.236,1880.794 157.859,1891.409 184,1899 C225.929,1911.176 271.811,1922.052 314.735,1931.199 " fill="none" id="a-to-UC14" style="stroke:#A80036;stroke-width:1.0;"/><polygon fill="#A80036" points="319.684,1932.249,311.7094,1926.4692,314.7927,1931.2119,310.05,1934.2952,319.684,1932.249" style="stroke:#A80036;stroke-width:1.0;"/><!--MD5=[3474c030bf081bb509c4070480095d6f]
link c to UC15--><path d="M88.6614,783 C113.118,783 155.014,783 202.581,783 " fill="none" id="c-to-UC15" style="stroke:#A80036;stroke-width:1.0;"/><polygon fill="#A80036" points="207.803,783,198.803,779,202.803,783,198.803,787,207.803,783" style="stroke:#A80036;stroke-width:1.0;"/><!--MD5=[0a3c6ae6aadffe898c4b98c098565f25]
link a to UC16--><path d="M83.1427,1896.651 C101.8089,1936.418 135.608,1994.645 184,2025 C230.421,2054.119 288.673,2067.286 341.332,2072.678 " fill="none" id="a-to-UC16" style="stroke:#A80036;stroke-width:1.0;"/><polygon fill="#A80036" points="346.41,2073.176,337.8426,2068.3181,341.4338,2072.6888,337.0631,2076.28,346.41,2073.176" style="stroke:#A80036;stroke-width:1.0;"/><!--MD5=[82e70956a5ad06af871ab4695d5ce7c0]
link a to UC17--><path d="M72.6056,1896.99 C84.1995,1956.03 114,2062.648 184,2119 C211.365,2141.03 244.615,2155.799 278.846,2165.593 " fill="none" id="a-to-UC17" style="stroke:#A80036;stroke-width:1.0;"/><polygon fill="#A80036" points="283.903,2167.002,276.3059,2160.7343,279.0863,2165.6607,274.1598,2168.441,283.903,2167.002" style="stroke:#A80036;stroke-width:1.0;"/><!--MD5=[d22b069cb77885e1264b7d7567d0cfee]
link cl to UC18--><path d="M83.0832,279.93 C126.379,284.82 243.815,298.09 340.133,308.97 " fill="none" id="cl-to-UC18" style="stroke:#A80036;stroke-width:1.0;"/><polygon fill="#A80036" points="345.283,309.55,336.7887,304.5653,340.3146,308.9889,335.891,312.5148,345.283,309.55" style="stroke:#A80036;stroke-width:1.0;"/><!--MD5=[eca610a9dd8afceaad1716fd1591fdd5]
link c to UC19--><path d="M88.5132,801.06 C111.258,818.37 148.077,843.89 184,858 C227.111,874.94 275.816,886.73 321.167,894.91 " fill="none" id="c-to-UC19" style="stroke:#A80036;stroke-width:1.0;"/><polygon fill="#A80036" points="326.111,895.79,317.9496,890.2772,321.1881,894.9153,316.55,898.1538,326.111,895.79" style="stroke:#A80036;stroke-width:1.0;"/><!--MD5=[70898b99876f6d445f96a51e06cf1755]
link cl to UC20--><path d="M83.1005,297.3 C104.3749,319.98 142.936,356.94 184,376 C227.114,396.01 276.965,408.5 323.41,416.28 " fill="none" id="cl-to-UC20" style="stroke:#A80036;stroke-width:1.0;"/><polygon fill="#A80036" points="328.472,417.11,320.2373,411.7072,323.5378,416.3014,318.9436,419.6019,328.472,417.11" style="stroke:#A80036;stroke-width:1.0;"/><!--MD5=[ed9b6c5efd3caafd71b7e13890691400]
link a to UC21--><path d="M65.5172,1896.52 C67.0022,1976.479 82.4073,2151.963 184,2243 C215.268,2271.02 255.979,2287.016 297.213,2295.76 " fill="none" id="a-to-UC21" style="stroke:#A80036;stroke-width:1.0;"/><polygon fill="#A80036" points="302.243,2296.791,294.2281,2291.0672,297.3446,2295.7882,292.6236,2298.9046,302.243,2296.791" style="stroke:#A80036;stroke-width:1.0;"/><!--MD5=[4b9e55500cbe4f56ee093d39b0a65464]
link c to UC22--><path d="M81.6306,824.52 C99.7776,867.01 133.79,931.79 184,968 C206.506,984.23 232.169,996.96 258.776,1006.95 " fill="none" id="c-to-UC22" style="stroke:#A80036;stroke-width:1.0;"/><polygon fill="#A80036" points="263.754,1008.78,256.6928,1001.9142,259.0626,1007.0507,253.926,1009.4205,263.754,1008.78" style="stroke:#A80036;stroke-width:1.0;"/><!--MD5=[c4783192d8b505a14df8dac6f5a6e314]
link a to UC23--><path d="M70.0363,1896.743 C81.387,2005.153 117.197,2291.615 184,2355 C218.225,2387.474 265.069,2403.817 311.481,2411.348 " fill="none" id="a-to-UC23" style="stroke:#A80036;stroke-width:1.0;"/><polygon fill="#A80036" points="316.552,2412.136,308.2739,2406.8,311.6114,2411.3673,307.0441,2414.7049,316.552,2412.136" style="stroke:#A80036;stroke-width:1.0;"/><!--MD5=[b5da8a396237ed07bca578c56699c99c]
link a to UC24--><path d="M68.447,1896.634 C76.5342,2019.977 106.445,2380.029 184,2463 C199.291,2479.358 217.542,2492.48 237.379,2502.986 " fill="none" id="a-to-UC24" style="stroke:#A80036;stroke-width:1.0;"/><polygon fill="#A80036" points="241.906,2505.325,235.7476,2497.639,237.4643,2503.0291,232.0742,2504.7458,241.906,2505.325" style="stroke:#A80036;stroke-width:1.0;"/><!--MD5=[a592955d4794ad465f61a88243581b2e]
link a to UC25--><path d="M66.3426,1896.636 C68.4169,2040.984 82.9355,2516.854 184,2622 C211.352,2650.457 248.203,2667.2283 286.654,2676.7154 " fill="none" id="a-to-UC25" style="stroke:#A80036;stroke-width:1.0;"/><polygon fill="#A80036" points="291.842,2677.9496,284.012,2671.9753,286.9777,2676.7925,282.1606,2679.7582,291.842,2677.9496" style="stroke:#A80036;stroke-width:1.0;"/><!--MD5=[5af42abbf95ee144456c886e2b87fcbc]
@startuml

left to right direction

actor Administrator AS a
actor Courier AS c
actor Client AS cl
actor Unregistered_User AS u

usecase "NANB9-22 - Add or update a courier to/from a list of couriers" AS UC1
usecase "NANB9-23 - Register Client" AS UC2
usecase "NANB9-8 - Add scooter to a list of scooters" AS UC3
usecase "NANB9-118 - Remove a scooter from a list of scooters" AS UC4
usecase "NANB9-9 - Register a new pharmacy and set park limit" AS UC5
usecase "NANB9-14 - Charge scooter when it's parked" AS UC6
usecase "NANB9-17 - Make a request for home delivery" AS UC7
usecase "NANB9-18 - Notify the courier when the scooter is parked correctly" AS UC8
usecase "NANB9-46 - Simulate Park System" AS UC9
usecase "NANB9-47 - Manage Stocks" AS UC10
usecase "NANB9-158 - Transfer Products" AS UC11
usecase "NANB9-159 - Buy With Backorder" AS UC12
usecase "NANB9-90-94 - User Login System" AS UC13
usecase "NANB9-12 - Want to know the most efficient path for each delivery" AS UC14
usecase "NANB9-13 - Know the amount of energy required to perform a delivery run by scooter" AS UC15
usecase "NANB9-27 - Mark the order as delivered" AS UC16
usecase "NANB9-20 - Generate an invoice and sent by e-mail to the client" AS UC17
usecase "NANB9-24 - Know the available earned credits" AS UC18
usecase "NANB9-147 - Notify client when the delivery run starts" AS UC19
usecase "NANB9-152 - Pay for online delivery using credits" AS UC20
usecase "NANB9-158 - Transfer products from other pharmacies" AS UC21
usecase "NANB9-165 - Know the amount of energy required to perform a delivery run by drone" AS UC22
usecase "NANB9-160 - Add, remove or update list of drones" AS UC23
usecase "NANB9-217 - Calculate the influence of weather on the energy requirements of a delivery run" AS UC24
usecase "NANB9-213 - Want to be able to use the app with file input" AS UC25

a - -> UC1
u - -> UC2
a - -> UC3 
a - -> UC4
a - -> UC5 
c - -> UC6
cl - -> UC7
c - -> UC8
a - -> UC9
a - -> UC10 
a - -> UC11
cl - -> UC12
a - -> UC13
a - -> UC14
c - -> UC15
a - -> UC16 
a - -> UC17
cl - -> UC18 
c - -> UC19
cl - -> UC20
a - -> UC21
c - -> UC22
a - -> UC23 
a - -> UC24
a - -> UC25

@enduml

PlantUML version 1.2020.22(Sun Dec 06 09:36:27 WET 2020)
(GPL source distribution)
Java Runtime: Java(TM) SE Runtime Environment
JVM: Java HotSpot(TM) 64-Bit Server VM
Default Encoding: Cp1252
Language: pt
Country: PT
--></g></svg>