<?xml version="1.0" encoding="UTF-8" standalone="no"?><svg xmlns="http://www.w3.org/2000/svg" xmlns:xlink="http://www.w3.org/1999/xlink" contentScriptType="application/ecmascript" contentStyleType="text/css" height="274px" preserveAspectRatio="none" style="width:1456px;height:274px;" version="1.1" viewBox="0 0 1456 274" width="1456px" zoomAndPan="magnify"><defs><filter height="300%" id="fpyl92tdbicrm" width="300%" x="-1" y="-1"><feGaussianBlur result="blurOut" stdDeviation="2.0"/><feColorMatrix in="blurOut" result="blurOut2" type="matrix" values="0 0 0 0 0 0 0 0 0 0 0 0 0 0 0 0 0 0 .4 0"/><feOffset dx="4.0" dy="4.0" in="blurOut2" result="blurOut3"/><feBlend in="SourceGraphic" in2="blurOut3" mode="normal"/></filter></defs><g><!--MD5=[7719cbdcc6319f07656dd97048c843b4]
class WatchFolderThread--><rect codeLine="3" fill="#FEFECE" filter="url(#fpyl92tdbicrm)" height="61.8359" id="WatchFolderThread" style="stroke:#A80036;stroke-width:1.5;" width="241" x="7" y="170.5"/><ellipse cx="69.25" cy="186.5" fill="#ADD1B2" rx="11" ry="11" style="stroke:#A80036;stroke-width:1.0;"/><path d="M72.0156,182.375 Q72.1719,182.1563 72.3594,182.0469 Q72.5469,181.9375 72.7656,181.9375 Q73.1406,181.9375 73.375,182.2031 Q73.6094,182.4531 73.6094,183.0625 L73.6094,184.5156 Q73.6094,185.125 73.375,185.3906 Q73.1406,185.6563 72.7656,185.6563 Q72.4219,185.6563 72.2188,185.4531 Q72.0156,185.2656 71.9063,184.75 Q71.8594,184.3906 71.6719,184.2031 Q71.3438,183.8281 70.7344,183.6094 Q70.125,183.3906 69.5,183.3906 Q68.7344,183.3906 68.0938,183.7188 Q67.4688,184.0469 66.9688,184.7969 Q66.4844,185.5469 66.4844,186.5781 L66.4844,187.6719 Q66.4844,188.9063 67.375,189.7344 Q68.2656,190.5469 69.8594,190.5469 Q70.7969,190.5469 71.4531,190.2969 Q71.8438,190.1406 72.2656,189.7031 Q72.5313,189.4375 72.6719,189.3594 Q72.8281,189.2813 73.0313,189.2813 Q73.3594,189.2813 73.6094,189.5469 Q73.875,189.7969 73.875,190.1406 Q73.875,190.4844 73.5313,190.8906 Q73.0313,191.4688 72.2344,191.7969 Q71.1563,192.25 69.8594,192.25 Q68.3438,192.25 67.1406,191.625 Q66.1563,191.125 65.4688,190.0625 Q64.7813,188.9844 64.7813,187.7031 L64.7813,186.5469 Q64.7813,185.2188 65.3906,184.0781 Q66.0156,182.9219 67.1094,182.3125 Q68.2031,181.6875 69.4375,181.6875 Q70.1719,181.6875 70.8125,181.8594 Q71.4688,182.0156 72.0156,182.375 Z " fill="#000000"/><text fill="#000000" font-family="sans-serif" font-size="12" lengthAdjust="spacingAndGlyphs" textLength="108" x="89.75" y="191.4102">WatchFolderThread</text><line style="stroke:#A80036;stroke-width:1.5;" x1="8" x2="247" y1="202.5" y2="202.5"/><line style="stroke:#A80036;stroke-width:1.5;" x1="8" x2="247" y1="210.5" y2="210.5"/><text fill="#000000" font-family="sans-serif" font-size="11" lengthAdjust="spacingAndGlyphs" textLength="229" x="13" y="225.9189">+WatchFolderThread newWatchFolderThread()</text><!--MD5=[48d7298b3bd1f8b3e8f77915e881d788]
class ScooterDB--><rect codeLine="7" fill="#FEFECE" filter="url(#fpyl92tdbicrm)" height="61.8359" id="ScooterDB" style="stroke:#A80036;stroke-width:1.5;" width="185" x="283" y="170.5"/><ellipse cx="341.75" cy="186.5" fill="#ADD1B2" rx="11" ry="11" style="stroke:#A80036;stroke-width:1.0;"/><path d="M344.5156,182.375 Q344.6719,182.1563 344.8594,182.0469 Q345.0469,181.9375 345.2656,181.9375 Q345.6406,181.9375 345.875,182.2031 Q346.1094,182.4531 346.1094,183.0625 L346.1094,184.5156 Q346.1094,185.125 345.875,185.3906 Q345.6406,185.6563 345.2656,185.6563 Q344.9219,185.6563 344.7188,185.4531 Q344.5156,185.2656 344.4063,184.75 Q344.3594,184.3906 344.1719,184.2031 Q343.8438,183.8281 343.2344,183.6094 Q342.625,183.3906 342,183.3906 Q341.2344,183.3906 340.5938,183.7188 Q339.9688,184.0469 339.4688,184.7969 Q338.9844,185.5469 338.9844,186.5781 L338.9844,187.6719 Q338.9844,188.9063 339.875,189.7344 Q340.7656,190.5469 342.3594,190.5469 Q343.2969,190.5469 343.9531,190.2969 Q344.3438,190.1406 344.7656,189.7031 Q345.0313,189.4375 345.1719,189.3594 Q345.3281,189.2813 345.5313,189.2813 Q345.8594,189.2813 346.1094,189.5469 Q346.375,189.7969 346.375,190.1406 Q346.375,190.4844 346.0313,190.8906 Q345.5313,191.4688 344.7344,191.7969 Q343.6563,192.25 342.3594,192.25 Q340.8438,192.25 339.6406,191.625 Q338.6563,191.125 337.9688,190.0625 Q337.2813,188.9844 337.2813,187.7031 L337.2813,186.5469 Q337.2813,185.2188 337.8906,184.0781 Q338.5156,182.9219 339.6094,182.3125 Q340.7031,181.6875 341.9375,181.6875 Q342.6719,181.6875 343.3125,181.8594 Q343.9688,182.0156 344.5156,182.375 Z " fill="#000000"/><text fill="#000000" font-family="sans-serif" font-size="12" lengthAdjust="spacingAndGlyphs" textLength="59" x="362.25" y="191.4102">ScooterDB</text><line style="stroke:#A80036;stroke-width:1.5;" x1="284" x2="467" y1="202.5" y2="202.5"/><line style="stroke:#A80036;stroke-width:1.5;" x1="284" x2="467" y1="210.5" y2="210.5"/><text fill="#000000" font-family="sans-serif" font-size="11" lengthAdjust="spacingAndGlyphs" textLength="173" x="289" y="225.9189">+updateScooterStatus(oSensorFile)</text><!--MD5=[17a3ebf5611c1ba9c6fd429f5d0d77a4]
class CourierDB--><rect codeLine="11" fill="#FEFECE" filter="url(#fpyl92tdbicrm)" height="61.8359" id="CourierDB" style="stroke:#A80036;stroke-width:1.5;" width="218" x="503.5" y="170.5"/><ellipse cx="579.25" cy="186.5" fill="#ADD1B2" rx="11" ry="11" style="stroke:#A80036;stroke-width:1.0;"/><path d="M582.0156,182.375 Q582.1719,182.1563 582.3594,182.0469 Q582.5469,181.9375 582.7656,181.9375 Q583.1406,181.9375 583.375,182.2031 Q583.6094,182.4531 583.6094,183.0625 L583.6094,184.5156 Q583.6094,185.125 583.375,185.3906 Q583.1406,185.6563 582.7656,185.6563 Q582.4219,185.6563 582.2188,185.4531 Q582.0156,185.2656 581.9063,184.75 Q581.8594,184.3906 581.6719,184.2031 Q581.3438,183.8281 580.7344,183.6094 Q580.125,183.3906 579.5,183.3906 Q578.7344,183.3906 578.0938,183.7188 Q577.4688,184.0469 576.9688,184.7969 Q576.4844,185.5469 576.4844,186.5781 L576.4844,187.6719 Q576.4844,188.9063 577.375,189.7344 Q578.2656,190.5469 579.8594,190.5469 Q580.7969,190.5469 581.4531,190.2969 Q581.8438,190.1406 582.2656,189.7031 Q582.5313,189.4375 582.6719,189.3594 Q582.8281,189.2813 583.0313,189.2813 Q583.3594,189.2813 583.6094,189.5469 Q583.875,189.7969 583.875,190.1406 Q583.875,190.4844 583.5313,190.8906 Q583.0313,191.4688 582.2344,191.7969 Q581.1563,192.25 579.8594,192.25 Q578.3438,192.25 577.1406,191.625 Q576.1563,191.125 575.4688,190.0625 Q574.7813,188.9844 574.7813,187.7031 L574.7813,186.5469 Q574.7813,185.2188 575.3906,184.0781 Q576.0156,182.9219 577.1094,182.3125 Q578.2031,181.6875 579.4375,181.6875 Q580.1719,181.6875 580.8125,181.8594 Q581.4688,182.0156 582.0156,182.375 Z " fill="#000000"/><text fill="#000000" font-family="sans-serif" font-size="12" lengthAdjust="spacingAndGlyphs" textLength="58" x="599.75" y="191.4102">CourierDB</text><line style="stroke:#A80036;stroke-width:1.5;" x1="504.5" x2="720.5" y1="202.5" y2="202.5"/><line style="stroke:#A80036;stroke-width:1.5;" x1="504.5" x2="720.5" y1="210.5" y2="210.5"/><text fill="#000000" font-family="sans-serif" font-size="11" lengthAdjust="spacingAndGlyphs" textLength="206" x="509.5" y="225.9189">+Courier getCourierByScooterId(scooterId)</text><!--MD5=[1d9a58d658e65eb5268064137c945ef3]
class ServiceParkSystemFiles--><rect codeLine="15" fill="#FEFECE" filter="url(#fpyl92tdbicrm)" height="117.1797" id="ServiceParkSystemFiles" style="stroke:#A80036;stroke-width:1.5;" width="210" x="756.5" y="143"/><ellipse cx="791.75" cy="159" fill="#ADD1B2" rx="11" ry="11" style="stroke:#A80036;stroke-width:1.0;"/><path d="M794.5156,154.875 Q794.6719,154.6563 794.8594,154.5469 Q795.0469,154.4375 795.2656,154.4375 Q795.6406,154.4375 795.875,154.7031 Q796.1094,154.9531 796.1094,155.5625 L796.1094,157.0156 Q796.1094,157.625 795.875,157.8906 Q795.6406,158.1563 795.2656,158.1563 Q794.9219,158.1563 794.7188,157.9531 Q794.5156,157.7656 794.4063,157.25 Q794.3594,156.8906 794.1719,156.7031 Q793.8438,156.3281 793.2344,156.1094 Q792.625,155.8906 792,155.8906 Q791.2344,155.8906 790.5938,156.2188 Q789.9688,156.5469 789.4688,157.2969 Q788.9844,158.0469 788.9844,159.0781 L788.9844,160.1719 Q788.9844,161.4063 789.875,162.2344 Q790.7656,163.0469 792.3594,163.0469 Q793.2969,163.0469 793.9531,162.7969 Q794.3438,162.6406 794.7656,162.2031 Q795.0313,161.9375 795.1719,161.8594 Q795.3281,161.7813 795.5313,161.7813 Q795.8594,161.7813 796.1094,162.0469 Q796.375,162.2969 796.375,162.6406 Q796.375,162.9844 796.0313,163.3906 Q795.5313,163.9688 794.7344,164.2969 Q793.6563,164.75 792.3594,164.75 Q790.8438,164.75 789.6406,164.125 Q788.6563,163.625 787.9688,162.5625 Q787.2813,161.4844 787.2813,160.2031 L787.2813,159.0469 Q787.2813,157.7188 787.8906,156.5781 Q788.5156,155.4219 789.6094,154.8125 Q790.7031,154.1875 791.9375,154.1875 Q792.6719,154.1875 793.3125,154.3594 Q793.9688,154.5156 794.5156,154.875 Z " fill="#000000"/><text fill="#000000" font-family="sans-serif" font-size="12" lengthAdjust="spacingAndGlyphs" textLength="133" x="810.25" y="163.9102">ServiceParkSystemFiles</text><line style="stroke:#A80036;stroke-width:1.5;" x1="757.5" x2="965.5" y1="175" y2="175"/><line style="stroke:#A80036;stroke-width:1.5;" x1="757.5" x2="965.5" y1="183" y2="183"/><text fill="#000000" font-family="sans-serif" font-size="11" lengthAdjust="spacingAndGlyphs" textLength="151" x="762.5" y="198.4189">+validateDetectedFile(fileName)</text><text fill="#000000" font-family="sans-serif" font-size="11" lengthAdjust="spacingAndGlyphs" textLength="173" x="762.5" y="212.2549">+checkIfDataFileIsPresent(fileName)</text><text fill="#000000" font-family="sans-serif" font-size="11" lengthAdjust="spacingAndGlyphs" textLength="190" x="762.5" y="226.0908">+ParkSensorFile readDataFile(fileName)</text><text fill="#000000" font-family="sans-serif" font-size="11" lengthAdjust="spacingAndGlyphs" textLength="195" x="762.5" y="239.9268">+deleteFileInInputDirectory(flagFileName)</text><text fill="#000000" font-family="sans-serif" font-size="11" lengthAdjust="spacingAndGlyphs" textLength="198" x="762.5" y="253.7627">+deleteFileInInputDirectory(dataFileName)</text><!--MD5=[2d82a3fbc5200a4e805d902495b040e1]
class NotifyCourierController--><rect codeLine="23" fill="#FEFECE" filter="url(#fpyl92tdbicrm)" height="75.6719" id="NotifyCourierController" style="stroke:#A80036;stroke-width:1.5;" width="164" x="654.5" y="7"/><ellipse cx="672.65" cy="23" fill="#ADD1B2" rx="11" ry="11" style="stroke:#A80036;stroke-width:1.0;"/><path d="M675.4156,18.875 Q675.5719,18.6563 675.7594,18.5469 Q675.9469,18.4375 676.1656,18.4375 Q676.5406,18.4375 676.775,18.7031 Q677.0094,18.9531 677.0094,19.5625 L677.0094,21.0156 Q677.0094,21.625 676.775,21.8906 Q676.5406,22.1563 676.1656,22.1563 Q675.8219,22.1563 675.6188,21.9531 Q675.4156,21.7656 675.3063,21.25 Q675.2594,20.8906 675.0719,20.7031 Q674.7438,20.3281 674.1344,20.1094 Q673.525,19.8906 672.9,19.8906 Q672.1344,19.8906 671.4938,20.2188 Q670.8688,20.5469 670.3688,21.2969 Q669.8844,22.0469 669.8844,23.0781 L669.8844,24.1719 Q669.8844,25.4063 670.775,26.2344 Q671.6656,27.0469 673.2594,27.0469 Q674.1969,27.0469 674.8531,26.7969 Q675.2438,26.6406 675.6656,26.2031 Q675.9313,25.9375 676.0719,25.8594 Q676.2281,25.7813 676.4313,25.7813 Q676.7594,25.7813 677.0094,26.0469 Q677.275,26.2969 677.275,26.6406 Q677.275,26.9844 676.9313,27.3906 Q676.4313,27.9688 675.6344,28.2969 Q674.5563,28.75 673.2594,28.75 Q671.7438,28.75 670.5406,28.125 Q669.5563,27.625 668.8688,26.5625 Q668.1813,25.4844 668.1813,24.2031 L668.1813,23.0469 Q668.1813,21.7188 668.7906,20.5781 Q669.4156,19.4219 670.5094,18.8125 Q671.6031,18.1875 672.8375,18.1875 Q673.5719,18.1875 674.2125,18.3594 Q674.8688,18.5156 675.4156,18.875 Z " fill="#000000"/><text fill="#000000" font-family="sans-serif" font-size="12" lengthAdjust="spacingAndGlyphs" textLength="125" x="687.35" y="27.9102">NotifyCourierController</text><line style="stroke:#A80036;stroke-width:1.5;" x1="655.5" x2="817.5" y1="39" y2="39"/><line style="stroke:#A80036;stroke-width:1.5;" x1="655.5" x2="817.5" y1="47" y2="47"/><text fill="#000000" font-family="sans-serif" font-size="11" lengthAdjust="spacingAndGlyphs" textLength="97" x="660.5" y="62.4189">+startFolderWatch()</text><text fill="#000000" font-family="sans-serif" font-size="11" lengthAdjust="spacingAndGlyphs" textLength="152" x="660.5" y="76.2549">-processDetectedFile(fileName)</text><!--MD5=[0fe41b89b799aae434294ab168f0ded6]
class PharmaDeliveriesApp--><rect codeLine="28" fill="#FEFECE" filter="url(#fpyl92tdbicrm)" height="61.8359" id="PharmaDeliveriesApp" style="stroke:#A80036;stroke-width:1.5;" width="166" x="1001.5" y="170.5"/><ellipse cx="1022.8" cy="186.5" fill="#ADD1B2" rx="11" ry="11" style="stroke:#A80036;stroke-width:1.0;"/><path d="M1025.5656,182.375 Q1025.7219,182.1563 1025.9094,182.0469 Q1026.0969,181.9375 1026.3156,181.9375 Q1026.6906,181.9375 1026.925,182.2031 Q1027.1594,182.4531 1027.1594,183.0625 L1027.1594,184.5156 Q1027.1594,185.125 1026.925,185.3906 Q1026.6906,185.6563 1026.3156,185.6563 Q1025.9719,185.6563 1025.7688,185.4531 Q1025.5656,185.2656 1025.4563,184.75 Q1025.4094,184.3906 1025.2219,184.2031 Q1024.8938,183.8281 1024.2844,183.6094 Q1023.675,183.3906 1023.05,183.3906 Q1022.2844,183.3906 1021.6438,183.7188 Q1021.0188,184.0469 1020.5188,184.7969 Q1020.0344,185.5469 1020.0344,186.5781 L1020.0344,187.6719 Q1020.0344,188.9063 1020.925,189.7344 Q1021.8156,190.5469 1023.4094,190.5469 Q1024.3469,190.5469 1025.0031,190.2969 Q1025.3938,190.1406 1025.8156,189.7031 Q1026.0813,189.4375 1026.2219,189.3594 Q1026.3781,189.2813 1026.5813,189.2813 Q1026.9094,189.2813 1027.1594,189.5469 Q1027.425,189.7969 1027.425,190.1406 Q1027.425,190.4844 1027.0813,190.8906 Q1026.5813,191.4688 1025.7844,191.7969 Q1024.7063,192.25 1023.4094,192.25 Q1021.8938,192.25 1020.6906,191.625 Q1019.7063,191.125 1019.0188,190.0625 Q1018.3313,188.9844 1018.3313,187.7031 L1018.3313,186.5469 Q1018.3313,185.2188 1018.9406,184.0781 Q1019.5656,182.9219 1020.6594,182.3125 Q1021.7531,181.6875 1022.9875,181.6875 Q1023.7219,181.6875 1024.3625,181.8594 Q1025.0188,182.0156 1025.5656,182.375 Z " fill="#000000"/><text fill="#000000" font-family="sans-serif" font-size="12" lengthAdjust="spacingAndGlyphs" textLength="120" x="1038.2" y="191.4102">PharmaDeliveriesApp</text><line style="stroke:#A80036;stroke-width:1.5;" x1="1002.5" x2="1166.5" y1="202.5" y2="202.5"/><line style="stroke:#A80036;stroke-width:1.5;" x1="1002.5" x2="1166.5" y1="210.5" y2="210.5"/><text fill="#000000" font-family="sans-serif" font-size="11" lengthAdjust="spacingAndGlyphs" textLength="154" x="1007.5" y="225.9189">+EmailService getEmailService()</text><!--MD5=[bcf33e039c9f38a306ec5209c2a9f4f8]
class EmailService--><rect codeLine="32" fill="#FEFECE" filter="url(#fpyl92tdbicrm)" height="61.8359" id="EmailService" style="stroke:#A80036;stroke-width:1.5;" width="240" x="1202.5" y="170.5"/><ellipse cx="1281.75" cy="186.5" fill="#B4A7E5" rx="11" ry="11" style="stroke:#A80036;stroke-width:1.0;"/><path d="M1282.7031,183.1406 L1282.7031,189.7969 L1284.4219,189.7969 Q1285.0313,189.7969 1285.2969,190.0313 Q1285.5625,190.2656 1285.5625,190.6563 Q1285.5625,191.0313 1285.2969,191.2656 Q1285.0313,191.5 1284.4219,191.5 L1279.2813,191.5 Q1278.6719,191.5 1278.4063,191.2656 Q1278.1406,191.0313 1278.1406,190.6406 Q1278.1406,190.2656 1278.4063,190.0313 Q1278.6719,189.7969 1279.2813,189.7969 L1281,189.7969 L1281,183.1406 L1279.2813,183.1406 Q1278.6719,183.1406 1278.4063,182.9063 Q1278.1406,182.6719 1278.1406,182.2813 Q1278.1406,181.9063 1278.4063,181.6719 Q1278.6719,181.4375 1279.2813,181.4375 L1284.4219,181.4375 Q1285.0313,181.4375 1285.2969,181.6719 Q1285.5625,181.9063 1285.5625,182.2813 Q1285.5625,182.6719 1285.2969,182.9063 Q1285.0313,183.1406 1284.4219,183.1406 L1282.7031,183.1406 Z " fill="#000000"/><text fill="#000000" font-family="sans-serif" font-size="12" font-style="italic" lengthAdjust="spacingAndGlyphs" textLength="73" x="1302.25" y="191.4102">EmailService</text><line style="stroke:#A80036;stroke-width:1.5;" x1="1203.5" x2="1441.5" y1="202.5" y2="202.5"/><line style="stroke:#A80036;stroke-width:1.5;" x1="1203.5" x2="1441.5" y1="210.5" y2="210.5"/><text fill="#000000" font-family="sans-serif" font-size="11" lengthAdjust="spacingAndGlyphs" textLength="228" x="1208.5" y="225.9189">+sendEmail(courierEmail, subject, emailContent)</text><!--MD5=[8958c827045e5532885b37b75235407c]
link NotifyCourierController to WatchFolderThread--><path codeLine="36" d="M654.464,57.996 C559.535,72.998 399.138,101.815 265.5,143 C242.902,149.964 218.909,159.255 197.377,168.3332 " fill="none" id="NotifyCourierController-to-WatchFolderThread" style="stroke:#A80036;stroke-width:1.0;stroke-dasharray:7.0,7.0;"/><polygon fill="#A80036" points="192.536,170.3883,202.3834,170.5552,197.1388,168.4353,199.2587,163.1907,192.536,170.3883" style="stroke:#A80036;stroke-width:1.0;"/><!--MD5=[71accecb277f517a6efde67034e28efa]
link NotifyCourierController to ServiceParkSystemFiles--><path codeLine="37" d="M766.441,83.007 C779.937,99.689 796.245,119.845 811.513,138.716 " fill="none" id="NotifyCourierController-to-ServiceParkSystemFiles" style="stroke:#A80036;stroke-width:1.0;stroke-dasharray:7.0,7.0;"/><polygon fill="#A80036" points="814.958,142.974,812.4057,133.4616,811.8126,139.0873,806.1869,138.4942,814.958,142.974" style="stroke:#A80036;stroke-width:1.0;"/><!--MD5=[543ab801f75bacff97982464f0fd0f0e]
link NotifyCourierController to ScooterDB--><path codeLine="38" d="M654.433,75.051 C604.932,93.23 540.93,117.898 485.5,143 C468.723,150.597 450.888,159.531 434.572,168.0609 " fill="none" id="NotifyCourierController-to-ScooterDB" style="stroke:#A80036;stroke-width:1.0;stroke-dasharray:7.0,7.0;"/><polygon fill="#A80036" points="430.012,170.4548,439.8399,169.8127,434.4389,168.1305,436.1211,162.7296,430.012,170.4548" style="stroke:#A80036;stroke-width:1.0;"/><!--MD5=[2bc05a1e2321c2a7c79d16ae64f6c4c6]
link NotifyCourierController to CourierDB--><path codeLine="39" d="M706.799,83.007 C686.547,108.239 659.917,141.42 640.123,166.0827 " fill="none" id="NotifyCourierController-to-CourierDB" style="stroke:#A80036;stroke-width:1.0;stroke-dasharray:7.0,7.0;"/><polygon fill="#A80036" points="636.759,170.2744,645.5124,165.7602,639.8891,166.3754,639.2739,160.7521,636.759,170.2744" style="stroke:#A80036;stroke-width:1.0;"/><!--MD5=[c97c862f8fd38d2790eca8d707b34038]
link NotifyCourierController to PharmaDeliveriesApp--><path codeLine="40" d="M818.779,74.677 C867.692,92.584 930.521,117.102 984.5,143 C999.963,150.419 1016.27,159.309 1031.13,167.8557 " fill="none" id="NotifyCourierController-to-PharmaDeliveriesApp" style="stroke:#A80036;stroke-width:1.0;stroke-dasharray:7.0,7.0;"/><polygon fill="#A80036" points="1035.69,170.4951,1029.8977,162.5296,1031.3605,167.9941,1025.896,169.4568,1035.69,170.4951" style="stroke:#A80036;stroke-width:1.0;"/><!--MD5=[3fc9819edbfd40a3160b4ecd4dba44de]
link NotifyCourierController to EmailService--><path codeLine="41" d="M818.791,59.074 C909.746,74.605 1059.99,103.476 1185.5,143 C1207.8,150.023 1231.49,159.281 1252.78,168.3119 " fill="none" id="NotifyCourierController-to-EmailService" style="stroke:#A80036;stroke-width:1.0;stroke-dasharray:7.0,7.0;"/><polygon fill="#A80036" points="1257.57,170.3558,1250.8742,163.1332,1252.9745,168.3857,1247.722,170.486,1257.57,170.3558" style="stroke:#A80036;stroke-width:1.0;"/><!--MD5=[83b4432cf094047cb8f5c93764f23cae]
@startuml
skinparam classAttributeIconSize 0

class WatchFolderThread {
    +WatchFolderThread newWatchFolderThread()
}

class ScooterDB {
    +updateScooterStatus(oSensorFile)
}

class CourierDB {
    +Courier getCourierByScooterId(scooterId)
}

class ServiceParkSystemFiles {
    +validateDetectedFile(fileName)
    +checkIfDataFileIsPresent(fileName)
    +ParkSensorFile readDataFile(fileName)
    +deleteFileInInputDirectory(flagFileName)
    +deleteFileInInputDirectory(dataFileName)
}

class NotifyCourierController {
    +startFolderWatch()
    -processDetectedFile(fileName)
}

class PharmaDeliveriesApp {
    +EmailService getEmailService()
}

interface EmailService {
    +sendEmail(courierEmail, subject, emailContent)
}

NotifyCourierController ..> WatchFolderThread
NotifyCourierController ..> ServiceParkSystemFiles
NotifyCourierController ..> ScooterDB
NotifyCourierController ..> CourierDB
NotifyCourierController ..> PharmaDeliveriesApp
NotifyCourierController ..> EmailService


@enduml

PlantUML version 1.2020.22(Sun Dec 06 09:36:27 WET 2020)
(GPL source distribution)
Java Runtime: Java(TM) SE Runtime Environment
JVM: Java HotSpot(TM) 64-Bit Server VM
Default Encoding: Cp1252
Language: pt
Country: PT
--></g></svg>