<?xml version="1.0" encoding="UTF-8" standalone="no"?><svg xmlns="http://www.w3.org/2000/svg" xmlns:xlink="http://www.w3.org/1999/xlink" contentScriptType="application/ecmascript" contentStyleType="text/css" height="844px" preserveAspectRatio="none" style="width:649px;height:844px;" version="1.1" viewBox="0 0 649 844" width="649px" zoomAndPan="magnify"><defs><filter height="300%" id="f13gv7pkt46l7o" width="300%" x="-1" y="-1"><feGaussianBlur result="blurOut" stdDeviation="2.0"/><feColorMatrix in="blurOut" result="blurOut2" type="matrix" values="0 0 0 0 0 0 0 0 0 0 0 0 0 0 0 0 0 0 .4 0"/><feOffset dx="4.0" dy="4.0" in="blurOut2" result="blurOut3"/><feBlend in="SourceGraphic" in2="blurOut3" mode="normal"/></filter></defs><g><!--MD5=[79eb2d862cef9730b5f9dcab29e35f17]
class Battery--><rect codeLine="4" fill="#FEFECE" filter="url(#f13gv7pkt46l7o)" height="103.3438" id="Battery" style="stroke:#A80036;stroke-width:1.5;" width="157" x="88" y="606"/><ellipse cx="143.75" cy="622" fill="#ADD1B2" rx="11" ry="11" style="stroke:#A80036;stroke-width:1.0;"/><path d="M146.5156,617.875 Q146.6719,617.6563 146.8594,617.5469 Q147.0469,617.4375 147.2656,617.4375 Q147.6406,617.4375 147.875,617.7031 Q148.1094,617.9531 148.1094,618.5625 L148.1094,620.0156 Q148.1094,620.625 147.875,620.8906 Q147.6406,621.1563 147.2656,621.1563 Q146.9219,621.1563 146.7188,620.9531 Q146.5156,620.7656 146.4063,620.25 Q146.3594,619.8906 146.1719,619.7031 Q145.8438,619.3281 145.2344,619.1094 Q144.625,618.8906 144,618.8906 Q143.2344,618.8906 142.5938,619.2188 Q141.9688,619.5469 141.4688,620.2969 Q140.9844,621.0469 140.9844,622.0781 L140.9844,623.1719 Q140.9844,624.4063 141.875,625.2344 Q142.7656,626.0469 144.3594,626.0469 Q145.2969,626.0469 145.9531,625.7969 Q146.3438,625.6406 146.7656,625.2031 Q147.0313,624.9375 147.1719,624.8594 Q147.3281,624.7813 147.5313,624.7813 Q147.8594,624.7813 148.1094,625.0469 Q148.375,625.2969 148.375,625.6406 Q148.375,625.9844 148.0313,626.3906 Q147.5313,626.9688 146.7344,627.2969 Q145.6563,627.75 144.3594,627.75 Q142.8438,627.75 141.6406,627.125 Q140.6563,626.625 139.9688,625.5625 Q139.2813,624.4844 139.2813,623.2031 L139.2813,622.0469 Q139.2813,620.7188 139.8906,619.5781 Q140.5156,618.4219 141.6094,617.8125 Q142.7031,617.1875 143.9375,617.1875 Q144.6719,617.1875 145.3125,617.3594 Q145.9688,617.5156 146.5156,617.875 Z " fill="#000000"/><text fill="#000000" font-family="sans-serif" font-size="12" lengthAdjust="spacingAndGlyphs" textLength="37" x="164.25" y="626.9102">Battery</text><line style="stroke:#A80036;stroke-width:1.5;" x1="89" x2="244" y1="638" y2="638"/><text fill="#000000" font-family="sans-serif" font-size="11" lengthAdjust="spacingAndGlyphs" textLength="67" x="94" y="653.4189">-int id_Battery</text><text fill="#000000" font-family="sans-serif" font-size="11" lengthAdjust="spacingAndGlyphs" textLength="59" x="94" y="667.2549">-int capacity</text><line style="stroke:#A80036;stroke-width:1.5;" x1="89" x2="244" y1="673.6719" y2="673.6719"/><text fill="#000000" font-family="sans-serif" font-size="11" lengthAdjust="spacingAndGlyphs" textLength="145" x="94" y="689.0908">+Battery(id_Battery, capacity)</text><text fill="#000000" font-family="sans-serif" font-size="11" lengthAdjust="spacingAndGlyphs" textLength="101" x="94" y="702.9268">+validateBattery(bat)</text><!--MD5=[2c1e2c5d18a3739ef73a3a948d436480]
class BatteryDB--><rect codeLine="11" fill="#FEFECE" filter="url(#f13gv7pkt46l7o)" height="61.8359" id="BatteryDB" style="stroke:#A80036;stroke-width:1.5;" width="86" x="123.5" y="769"/><ellipse cx="138.5" cy="785" fill="#ADD1B2" rx="11" ry="11" style="stroke:#A80036;stroke-width:1.0;"/><path d="M141.2656,780.875 Q141.4219,780.6563 141.6094,780.5469 Q141.7969,780.4375 142.0156,780.4375 Q142.3906,780.4375 142.625,780.7031 Q142.8594,780.9531 142.8594,781.5625 L142.8594,783.0156 Q142.8594,783.625 142.625,783.8906 Q142.3906,784.1563 142.0156,784.1563 Q141.6719,784.1563 141.4688,783.9531 Q141.2656,783.7656 141.1563,783.25 Q141.1094,782.8906 140.9219,782.7031 Q140.5938,782.3281 139.9844,782.1094 Q139.375,781.8906 138.75,781.8906 Q137.9844,781.8906 137.3438,782.2188 Q136.7188,782.5469 136.2188,783.2969 Q135.7344,784.0469 135.7344,785.0781 L135.7344,786.1719 Q135.7344,787.4063 136.625,788.2344 Q137.5156,789.0469 139.1094,789.0469 Q140.0469,789.0469 140.7031,788.7969 Q141.0938,788.6406 141.5156,788.2031 Q141.7813,787.9375 141.9219,787.8594 Q142.0781,787.7813 142.2813,787.7813 Q142.6094,787.7813 142.8594,788.0469 Q143.125,788.2969 143.125,788.6406 Q143.125,788.9844 142.7813,789.3906 Q142.2813,789.9688 141.4844,790.2969 Q140.4063,790.75 139.1094,790.75 Q137.5938,790.75 136.3906,790.125 Q135.4063,789.625 134.7188,788.5625 Q134.0313,787.4844 134.0313,786.2031 L134.0313,785.0469 Q134.0313,783.7188 134.6406,782.5781 Q135.2656,781.4219 136.3594,780.8125 Q137.4531,780.1875 138.6875,780.1875 Q139.4219,780.1875 140.0625,780.3594 Q140.7188,780.5156 141.2656,780.875 Z " fill="#000000"/><text fill="#000000" font-family="sans-serif" font-size="12" lengthAdjust="spacingAndGlyphs" textLength="54" x="152.5" y="789.9102">BatteryDB</text><line style="stroke:#A80036;stroke-width:1.5;" x1="124.5" x2="208.5" y1="801" y2="801"/><line style="stroke:#A80036;stroke-width:1.5;" x1="124.5" x2="208.5" y1="809" y2="809"/><text fill="#000000" font-family="sans-serif" font-size="11" lengthAdjust="spacingAndGlyphs" textLength="53" x="129.5" y="824.4189">+save(bat)</text><!--MD5=[48d7298b3bd1f8b3e8f77915e881d788]
class ScooterDB--><rect codeLine="15" fill="#FEFECE" filter="url(#f13gv7pkt46l7o)" height="61.8359" id="ScooterDB" style="stroke:#A80036;stroke-width:1.5;" width="91" x="280" y="626.5"/><ellipse cx="295" cy="642.5" fill="#ADD1B2" rx="11" ry="11" style="stroke:#A80036;stroke-width:1.0;"/><path d="M297.7656,638.375 Q297.9219,638.1563 298.1094,638.0469 Q298.2969,637.9375 298.5156,637.9375 Q298.8906,637.9375 299.125,638.2031 Q299.3594,638.4531 299.3594,639.0625 L299.3594,640.5156 Q299.3594,641.125 299.125,641.3906 Q298.8906,641.6563 298.5156,641.6563 Q298.1719,641.6563 297.9688,641.4531 Q297.7656,641.2656 297.6563,640.75 Q297.6094,640.3906 297.4219,640.2031 Q297.0938,639.8281 296.4844,639.6094 Q295.875,639.3906 295.25,639.3906 Q294.4844,639.3906 293.8438,639.7188 Q293.2188,640.0469 292.7188,640.7969 Q292.2344,641.5469 292.2344,642.5781 L292.2344,643.6719 Q292.2344,644.9063 293.125,645.7344 Q294.0156,646.5469 295.6094,646.5469 Q296.5469,646.5469 297.2031,646.2969 Q297.5938,646.1406 298.0156,645.7031 Q298.2813,645.4375 298.4219,645.3594 Q298.5781,645.2813 298.7813,645.2813 Q299.1094,645.2813 299.3594,645.5469 Q299.625,645.7969 299.625,646.1406 Q299.625,646.4844 299.2813,646.8906 Q298.7813,647.4688 297.9844,647.7969 Q296.9063,648.25 295.6094,648.25 Q294.0938,648.25 292.8906,647.625 Q291.9063,647.125 291.2188,646.0625 Q290.5313,644.9844 290.5313,643.7031 L290.5313,642.5469 Q290.5313,641.2188 291.1406,640.0781 Q291.7656,638.9219 292.8594,638.3125 Q293.9531,637.6875 295.1875,637.6875 Q295.9219,637.6875 296.5625,637.8594 Q297.2188,638.0156 297.7656,638.375 Z " fill="#000000"/><text fill="#000000" font-family="sans-serif" font-size="12" lengthAdjust="spacingAndGlyphs" textLength="59" x="309" y="647.4102">ScooterDB</text><line style="stroke:#A80036;stroke-width:1.5;" x1="281" x2="370" y1="658.5" y2="658.5"/><line style="stroke:#A80036;stroke-width:1.5;" x1="281" x2="370" y1="666.5" y2="666.5"/><text fill="#000000" font-family="sans-serif" font-size="11" lengthAdjust="spacingAndGlyphs" textLength="50" x="286" y="681.9189">+save(sc)</text><!--MD5=[f4402668d5d5bb8485350c0fdb60ac8e]
class Scooter--><rect codeLine="19" fill="#FEFECE" filter="url(#f13gv7pkt46l7o)" height="144.8516" id="Scooter" style="stroke:#A80036;stroke-width:1.5;" width="295" x="98" y="401"/><ellipse cx="220.25" cy="417" fill="#ADD1B2" rx="11" ry="11" style="stroke:#A80036;stroke-width:1.0;"/><path d="M223.0156,412.875 Q223.1719,412.6563 223.3594,412.5469 Q223.5469,412.4375 223.7656,412.4375 Q224.1406,412.4375 224.375,412.7031 Q224.6094,412.9531 224.6094,413.5625 L224.6094,415.0156 Q224.6094,415.625 224.375,415.8906 Q224.1406,416.1563 223.7656,416.1563 Q223.4219,416.1563 223.2188,415.9531 Q223.0156,415.7656 222.9063,415.25 Q222.8594,414.8906 222.6719,414.7031 Q222.3438,414.3281 221.7344,414.1094 Q221.125,413.8906 220.5,413.8906 Q219.7344,413.8906 219.0938,414.2188 Q218.4688,414.5469 217.9688,415.2969 Q217.4844,416.0469 217.4844,417.0781 L217.4844,418.1719 Q217.4844,419.4063 218.375,420.2344 Q219.2656,421.0469 220.8594,421.0469 Q221.7969,421.0469 222.4531,420.7969 Q222.8438,420.6406 223.2656,420.2031 Q223.5313,419.9375 223.6719,419.8594 Q223.8281,419.7813 224.0313,419.7813 Q224.3594,419.7813 224.6094,420.0469 Q224.875,420.2969 224.875,420.6406 Q224.875,420.9844 224.5313,421.3906 Q224.0313,421.9688 223.2344,422.2969 Q222.1563,422.75 220.8594,422.75 Q219.3438,422.75 218.1406,422.125 Q217.1563,421.625 216.4688,420.5625 Q215.7813,419.4844 215.7813,418.2031 L215.7813,417.0469 Q215.7813,415.7188 216.3906,414.5781 Q217.0156,413.4219 218.1094,412.8125 Q219.2031,412.1875 220.4375,412.1875 Q221.1719,412.1875 221.8125,412.3594 Q222.4688,412.5156 223.0156,412.875 Z " fill="#000000"/><text fill="#000000" font-family="sans-serif" font-size="12" lengthAdjust="spacingAndGlyphs" textLength="42" x="240.75" y="421.9102">Scooter</text><line style="stroke:#A80036;stroke-width:1.5;" x1="99" x2="392" y1="433" y2="433"/><text fill="#000000" font-family="sans-serif" font-size="11" lengthAdjust="spacingAndGlyphs" textLength="70" x="104" y="448.4189">-int id_Scooter</text><text fill="#000000" font-family="sans-serif" font-size="11" lengthAdjust="spacingAndGlyphs" textLength="53" x="104" y="462.2549">-int qrCode</text><text fill="#000000" font-family="sans-serif" font-size="11" lengthAdjust="spacingAndGlyphs" textLength="48" x="104" y="476.0908">-int status</text><text fill="#000000" font-family="sans-serif" font-size="11" lengthAdjust="spacingAndGlyphs" textLength="67" x="104" y="489.9268">-int id_Battery</text><text fill="#000000" font-family="sans-serif" font-size="11" lengthAdjust="spacingAndGlyphs" textLength="59" x="104" y="503.7627">-int capacity</text><line style="stroke:#A80036;stroke-width:1.5;" x1="99" x2="392" y1="510.1797" y2="510.1797"/><text fill="#000000" font-family="sans-serif" font-size="11" lengthAdjust="spacingAndGlyphs" textLength="283" x="104" y="525.5986">+Scooter(id_Scooter, qrCode, status, id_Battery, capacity)</text><text fill="#000000" font-family="sans-serif" font-size="11" lengthAdjust="spacingAndGlyphs" textLength="145" x="104" y="539.4346">+Battery(id_Battery, capacity)</text><!--MD5=[7f2a9fafcebe4f099f71398fd3e2ed00]
class Pharmacy--><rect codeLine="29" fill="#FEFECE" filter="url(#f13gv7pkt46l7o)" height="75.6719" id="Pharmacy" style="stroke:#A80036;stroke-width:1.5;" width="154" x="88.5" y="258"/><ellipse cx="133.75" cy="274" fill="#ADD1B2" rx="11" ry="11" style="stroke:#A80036;stroke-width:1.0;"/><path d="M136.5156,269.875 Q136.6719,269.6563 136.8594,269.5469 Q137.0469,269.4375 137.2656,269.4375 Q137.6406,269.4375 137.875,269.7031 Q138.1094,269.9531 138.1094,270.5625 L138.1094,272.0156 Q138.1094,272.625 137.875,272.8906 Q137.6406,273.1563 137.2656,273.1563 Q136.9219,273.1563 136.7188,272.9531 Q136.5156,272.7656 136.4063,272.25 Q136.3594,271.8906 136.1719,271.7031 Q135.8438,271.3281 135.2344,271.1094 Q134.625,270.8906 134,270.8906 Q133.2344,270.8906 132.5938,271.2188 Q131.9688,271.5469 131.4688,272.2969 Q130.9844,273.0469 130.9844,274.0781 L130.9844,275.1719 Q130.9844,276.4063 131.875,277.2344 Q132.7656,278.0469 134.3594,278.0469 Q135.2969,278.0469 135.9531,277.7969 Q136.3438,277.6406 136.7656,277.2031 Q137.0313,276.9375 137.1719,276.8594 Q137.3281,276.7813 137.5313,276.7813 Q137.8594,276.7813 138.1094,277.0469 Q138.375,277.2969 138.375,277.6406 Q138.375,277.9844 138.0313,278.3906 Q137.5313,278.9688 136.7344,279.2969 Q135.6563,279.75 134.3594,279.75 Q132.8438,279.75 131.6406,279.125 Q130.6563,278.625 129.9688,277.5625 Q129.2813,276.4844 129.2813,275.2031 L129.2813,274.0469 Q129.2813,272.7188 129.8906,271.5781 Q130.5156,270.4219 131.6094,269.8125 Q132.7031,269.1875 133.9375,269.1875 Q134.6719,269.1875 135.3125,269.3594 Q135.9688,269.5156 136.5156,269.875 Z " fill="#000000"/><text fill="#000000" font-family="sans-serif" font-size="12" lengthAdjust="spacingAndGlyphs" textLength="55" x="154.25" y="278.9102">Pharmacy</text><line style="stroke:#A80036;stroke-width:1.5;" x1="89.5" x2="241.5" y1="290" y2="290"/><text fill="#000000" font-family="sans-serif" font-size="11" lengthAdjust="spacingAndGlyphs" textLength="90" x="94.5" y="305.4189">-String designation</text><line style="stroke:#A80036;stroke-width:1.5;" x1="89.5" x2="241.5" y1="311.8359" y2="311.8359"/><text fill="#000000" font-family="sans-serif" font-size="11" lengthAdjust="spacingAndGlyphs" textLength="142" x="94.5" y="327.2549">+ListScooter getListScooter()</text><!--MD5=[cf0aa40e0609986c5fd5c90bfa6114f3]
class ListScooters--><rect codeLine="34" fill="#FEFECE" filter="url(#f13gv7pkt46l7o)" height="89.5078" id="ListScooters" style="stroke:#A80036;stroke-width:1.5;" width="358" x="277.5" y="251"/><ellipse cx="417.75" cy="267" fill="#ADD1B2" rx="11" ry="11" style="stroke:#A80036;stroke-width:1.0;"/><path d="M420.5156,262.875 Q420.6719,262.6563 420.8594,262.5469 Q421.0469,262.4375 421.2656,262.4375 Q421.6406,262.4375 421.875,262.7031 Q422.1094,262.9531 422.1094,263.5625 L422.1094,265.0156 Q422.1094,265.625 421.875,265.8906 Q421.6406,266.1563 421.2656,266.1563 Q420.9219,266.1563 420.7188,265.9531 Q420.5156,265.7656 420.4063,265.25 Q420.3594,264.8906 420.1719,264.7031 Q419.8438,264.3281 419.2344,264.1094 Q418.625,263.8906 418,263.8906 Q417.2344,263.8906 416.5938,264.2188 Q415.9688,264.5469 415.4688,265.2969 Q414.9844,266.0469 414.9844,267.0781 L414.9844,268.1719 Q414.9844,269.4063 415.875,270.2344 Q416.7656,271.0469 418.3594,271.0469 Q419.2969,271.0469 419.9531,270.7969 Q420.3438,270.6406 420.7656,270.2031 Q421.0313,269.9375 421.1719,269.8594 Q421.3281,269.7813 421.5313,269.7813 Q421.8594,269.7813 422.1094,270.0469 Q422.375,270.2969 422.375,270.6406 Q422.375,270.9844 422.0313,271.3906 Q421.5313,271.9688 420.7344,272.2969 Q419.6563,272.75 418.3594,272.75 Q416.8438,272.75 415.6406,272.125 Q414.6563,271.625 413.9688,270.5625 Q413.2813,269.4844 413.2813,268.2031 L413.2813,267.0469 Q413.2813,265.7188 413.8906,264.5781 Q414.5156,263.4219 415.6094,262.8125 Q416.7031,262.1875 417.9375,262.1875 Q418.6719,262.1875 419.3125,262.3594 Q419.9688,262.5156 420.5156,262.875 Z " fill="#000000"/><text fill="#000000" font-family="sans-serif" font-size="12" lengthAdjust="spacingAndGlyphs" textLength="69" x="438.25" y="271.9102">ListScooters</text><line style="stroke:#A80036;stroke-width:1.5;" x1="278.5" x2="634.5" y1="283" y2="283"/><line style="stroke:#A80036;stroke-width:1.5;" x1="278.5" x2="634.5" y1="291" y2="291"/><text fill="#000000" font-family="sans-serif" font-size="11" lengthAdjust="spacingAndGlyphs" textLength="346" x="283.5" y="306.4189">+Scooter newScooter(id_Scooter, qrCode, status, id_Battery, capacity)</text><text fill="#000000" font-family="sans-serif" font-size="11" lengthAdjust="spacingAndGlyphs" textLength="142" x="283.5" y="320.2549">+validateScooter(Scooter sc)</text><text fill="#000000" font-family="sans-serif" font-size="11" lengthAdjust="spacingAndGlyphs" textLength="125" x="283.5" y="334.0908">+AddScooter(Scooter sc)</text><!--MD5=[83f9a42a3c5740e41305507a025d3000]
class AddScooterController--><rect codeLine="40" fill="#FEFECE" filter="url(#f13gv7pkt46l7o)" height="75.6719" id="AddScooterController" style="stroke:#A80036;stroke-width:1.5;" width="317" x="7" y="115"/><ellipse cx="102.75" cy="131" fill="#ADD1B2" rx="11" ry="11" style="stroke:#A80036;stroke-width:1.0;"/><path d="M105.5156,126.875 Q105.6719,126.6563 105.8594,126.5469 Q106.0469,126.4375 106.2656,126.4375 Q106.6406,126.4375 106.875,126.7031 Q107.1094,126.9531 107.1094,127.5625 L107.1094,129.0156 Q107.1094,129.625 106.875,129.8906 Q106.6406,130.1563 106.2656,130.1563 Q105.9219,130.1563 105.7188,129.9531 Q105.5156,129.7656 105.4063,129.25 Q105.3594,128.8906 105.1719,128.7031 Q104.8438,128.3281 104.2344,128.1094 Q103.625,127.8906 103,127.8906 Q102.2344,127.8906 101.5938,128.2188 Q100.9688,128.5469 100.4688,129.2969 Q99.9844,130.0469 99.9844,131.0781 L99.9844,132.1719 Q99.9844,133.4063 100.875,134.2344 Q101.7656,135.0469 103.3594,135.0469 Q104.2969,135.0469 104.9531,134.7969 Q105.3438,134.6406 105.7656,134.2031 Q106.0313,133.9375 106.1719,133.8594 Q106.3281,133.7813 106.5313,133.7813 Q106.8594,133.7813 107.1094,134.0469 Q107.375,134.2969 107.375,134.6406 Q107.375,134.9844 107.0313,135.3906 Q106.5313,135.9688 105.7344,136.2969 Q104.6563,136.75 103.3594,136.75 Q101.8438,136.75 100.6406,136.125 Q99.6563,135.625 98.9688,134.5625 Q98.2813,133.4844 98.2813,132.2031 L98.2813,131.0469 Q98.2813,129.7188 98.8906,128.5781 Q99.5156,127.4219 100.6094,126.8125 Q101.7031,126.1875 102.9375,126.1875 Q103.6719,126.1875 104.3125,126.3594 Q104.9688,126.5156 105.5156,126.875 Z " fill="#000000"/><text fill="#000000" font-family="sans-serif" font-size="12" lengthAdjust="spacingAndGlyphs" textLength="117" x="123.25" y="135.9102">AddScooterController</text><line style="stroke:#A80036;stroke-width:1.5;" x1="8" x2="323" y1="147" y2="147"/><line style="stroke:#A80036;stroke-width:1.5;" x1="8" x2="323" y1="155" y2="155"/><text fill="#000000" font-family="sans-serif" font-size="11" lengthAdjust="spacingAndGlyphs" textLength="305" x="13" y="170.4189">+newScooter(id_Scooter, qrCode, status, id_Battery, capacity)</text><text fill="#000000" font-family="sans-serif" font-size="11" lengthAdjust="spacingAndGlyphs" textLength="84" x="13" y="184.2549">+AddScooter(sc)</text><!--MD5=[4a2e20469690effa44697b1b766d2b36]
class AddScooterUI--><rect codeLine="45" fill="#FEFECE" filter="url(#f13gv7pkt46l7o)" height="48" id="AddScooterUI" style="stroke:#A80036;stroke-width:1.5;" width="107" x="112" y="7"/><ellipse cx="127" cy="23" fill="#ADD1B2" rx="11" ry="11" style="stroke:#A80036;stroke-width:1.0;"/><path d="M129.7656,18.875 Q129.9219,18.6563 130.1094,18.5469 Q130.2969,18.4375 130.5156,18.4375 Q130.8906,18.4375 131.125,18.7031 Q131.3594,18.9531 131.3594,19.5625 L131.3594,21.0156 Q131.3594,21.625 131.125,21.8906 Q130.8906,22.1563 130.5156,22.1563 Q130.1719,22.1563 129.9688,21.9531 Q129.7656,21.7656 129.6563,21.25 Q129.6094,20.8906 129.4219,20.7031 Q129.0938,20.3281 128.4844,20.1094 Q127.875,19.8906 127.25,19.8906 Q126.4844,19.8906 125.8438,20.2188 Q125.2188,20.5469 124.7188,21.2969 Q124.2344,22.0469 124.2344,23.0781 L124.2344,24.1719 Q124.2344,25.4063 125.125,26.2344 Q126.0156,27.0469 127.6094,27.0469 Q128.5469,27.0469 129.2031,26.7969 Q129.5938,26.6406 130.0156,26.2031 Q130.2813,25.9375 130.4219,25.8594 Q130.5781,25.7813 130.7813,25.7813 Q131.1094,25.7813 131.3594,26.0469 Q131.625,26.2969 131.625,26.6406 Q131.625,26.9844 131.2813,27.3906 Q130.7813,27.9688 129.9844,28.2969 Q128.9063,28.75 127.6094,28.75 Q126.0938,28.75 124.8906,28.125 Q123.9063,27.625 123.2188,26.5625 Q122.5313,25.4844 122.5313,24.2031 L122.5313,23.0469 Q122.5313,21.7188 123.1406,20.5781 Q123.7656,19.4219 124.8594,18.8125 Q125.9531,18.1875 127.1875,18.1875 Q127.9219,18.1875 128.5625,18.3594 Q129.2188,18.5156 129.7656,18.875 Z " fill="#000000"/><text fill="#000000" font-family="sans-serif" font-size="12" lengthAdjust="spacingAndGlyphs" textLength="75" x="141" y="27.9102">AddScooterUI</text><line style="stroke:#A80036;stroke-width:1.5;" x1="113" x2="218" y1="39" y2="39"/><line style="stroke:#A80036;stroke-width:1.5;" x1="113" x2="218" y1="47" y2="47"/><!--MD5=[8ce84a6c1b75cf9d0a0a09affc8d940a]
link AddScooterUI to AddScooterController--><path codeLine="48" d="M165.5,55.137 C165.5,70.576 165.5,91.332 165.5,109.669 " fill="none" id="AddScooterUI-to-AddScooterController" style="stroke:#A80036;stroke-width:1.0;stroke-dasharray:7.0,7.0;"/><polygon fill="#A80036" points="165.5,114.771,169.5,105.771,165.5,109.771,161.5,105.771,165.5,114.771" style="stroke:#A80036;stroke-width:1.0;"/><!--MD5=[2e30d946f62d132f67fd1852a7ac19f6]
link AddScooterController to Pharmacy--><path codeLine="49" d="M165.5,191.046 C165.5,209.921 165.5,232.961 165.5,252.549 " fill="none" id="AddScooterController-to-Pharmacy" style="stroke:#A80036;stroke-width:1.0;stroke-dasharray:7.0,7.0;"/><polygon fill="#A80036" points="165.5,257.712,169.5,248.712,165.5,252.712,161.5,248.712,165.5,257.712" style="stroke:#A80036;stroke-width:1.0;"/><!--MD5=[45733b0f3426e548fbf6c142dbca1d5d]
link AddScooterController to ListScooters--><path codeLine="50" d="M241.957,191.046 C278.366,208.687 322.283,229.967 360.875,248.666 " fill="none" id="AddScooterController-to-ListScooters" style="stroke:#A80036;stroke-width:1.0;stroke-dasharray:7.0,7.0;"/><polygon fill="#A80036" points="365.554,250.934,359.1983,243.4104,361.0542,248.7541,355.7105,250.61,365.554,250.934" style="stroke:#A80036;stroke-width:1.0;"/><!--MD5=[44fb0131b2faf2ccf481dd08f7d64e86]
link AddScooterController to Scooter--><path codeLine="51" d="M115.599,191.054 C97.8516,207.26 79.9413,227.867 70.5,251 C55.3853,288.034 52.6278,305.215 70.5,341 C81.1557,362.336 97.103,381.113 115.107,397.304 " fill="none" id="AddScooterController-to-Scooter" style="stroke:#A80036;stroke-width:1.0;stroke-dasharray:7.0,7.0;"/><polygon fill="#A80036" points="119.226,400.934,115.1181,391.9827,115.4746,397.6283,109.829,397.9849,119.226,400.934" style="stroke:#A80036;stroke-width:1.0;"/><!--MD5=[f7b92c2909ed283152f332ba3421c77a]
link ListScooters to Scooter--><path codeLine="53" d="M403.528,341.06 C382.987,358.145 358.879,378.196 335.768,397.419 " fill="none" id="ListScooters-to-Scooter" style="stroke:#A80036;stroke-width:1.0;"/><polygon fill="#A80036" points="331.768,400.747,341.2454,398.0676,335.6123,397.5499,336.13,391.9168,331.768,400.747" style="stroke:#A80036;stroke-width:1.0;"/><text fill="#000000" font-family="sans-serif" font-size="13" lengthAdjust="spacingAndGlyphs" textLength="7" x="388.5866" y="362.076">1</text><text fill="#000000" font-family="sans-serif" font-size="13" lengthAdjust="spacingAndGlyphs" textLength="5" x="335.4066" y="389.9402">*</text><!--MD5=[cf0177e8d253526d8f3f464530787061]
link Scooter to Battery--><path codeLine="54" d="M214.391,546.17 C206.458,564.446 198.051,583.812 190.533,601.133 " fill="none" id="Scooter-to-Battery" style="stroke:#A80036;stroke-width:1.0;"/><polygon fill="#A80036" points="188.437,605.962,195.6884,599.2974,190.4269,601.375,188.3493,596.1135,188.437,605.962" style="stroke:#A80036;stroke-width:1.0;"/><!--MD5=[49bff876dcab90bc5ce1b627ce018eb3]
link Scooter to ScooterDB--><path codeLine="55" d="M277.003,546.17 C288.385,572.064 300.73,600.148 310.116,621.501 " fill="none" id="Scooter-to-ScooterDB" style="stroke:#A80036;stroke-width:1.0;stroke-dasharray:7.0,7.0;"/><polygon fill="#A80036" points="312.193,626.226,312.2341,616.3772,310.1814,621.6485,304.9101,619.5958,312.193,626.226" style="stroke:#A80036;stroke-width:1.0;"/><!--MD5=[bfe33b7c5c17f964767a6bfa2cbee78c]
link Battery to BatteryDB--><path codeLine="56" d="M166.5,709.224 C166.5,727.317 166.5,747.2876 166.5,763.7903 " fill="none" id="Battery-to-BatteryDB" style="stroke:#A80036;stroke-width:1.0;stroke-dasharray:7.0,7.0;"/><polygon fill="#A80036" points="166.5,768.7945,170.5,759.7945,166.5,763.7945,162.5,759.7945,166.5,768.7945" style="stroke:#A80036;stroke-width:1.0;"/><!--MD5=[f7085849490943054e0463ac579923fd]
@startuml

skinparam classAttributeIconSize 0

class Battery {
    -int id_Battery
    -int capacity
    +Battery(id_Battery, capacity)
    +validateBattery(bat)
}

class BatteryDB {
    +save(bat)
}

class ScooterDB {
    +save(sc)
}

class Scooter {
  -int id_Scooter
  -int qrCode
  -int status
  -int id_Battery
  -int capacity
  +Scooter(id_Scooter, qrCode, status, id_Battery, capacity)
  +Battery(id_Battery, capacity)
}

class Pharmacy {
  -String designation
  +ListScooter getListScooter()
}

class ListScooters {
  +Scooter newScooter(id_Scooter, qrCode, status, id_Battery, capacity)
  +validateScooter(Scooter sc)
  +AddScooter(Scooter sc)
}

class AddScooterController {
    +newScooter(id_Scooter, qrCode, status, id_Battery, capacity)
    +AddScooter(sc)
}

class AddScooterUI {
}

AddScooterUI ..> AddScooterController
AddScooterController ..> Pharmacy
AddScooterController ..> ListScooters
AddScooterController ..> Scooter

ListScooters "1" - -> "*" Scooter 
Scooter - -> Battery
Scooter ..> ScooterDB
Battery ..> BatteryDB

@enduml

PlantUML version 1.2020.22(Sun Dec 06 09:36:27 WET 2020)
(GPL source distribution)
Java Runtime: OpenJDK Runtime Environment
JVM: OpenJDK 64-Bit Server VM
Default Encoding: Cp1252
Language: pt
Country: PT
--></g></svg>