<?xml version="1.0" encoding="UTF-8" standalone="no"?><svg xmlns="http://www.w3.org/2000/svg" xmlns:xlink="http://www.w3.org/1999/xlink" contentScriptType="application/ecmascript" contentStyleType="text/css" height="833px" preserveAspectRatio="none" style="width:968px;height:833px;" version="1.1" viewBox="0 0 968 833" width="968px" zoomAndPan="magnify"><defs><filter height="300%" id="f13i0762xrv92a" width="300%" x="-1" y="-1"><feGaussianBlur result="blurOut" stdDeviation="2.0"/><feColorMatrix in="blurOut" result="blurOut2" type="matrix" values="0 0 0 0 0 0 0 0 0 0 0 0 0 0 0 0 0 0 .4 0"/><feOffset dx="4.0" dy="4.0" in="blurOut2" result="blurOut3"/><feBlend in="SourceGraphic" in2="blurOut3" mode="normal"/></filter></defs><g><!--MD5=[0f39e4cb6f03951afbf6d14bd2505654]
class Address--><rect codeLine="4" fill="#FEFECE" filter="url(#f13i0762xrv92a)" height="172.5234" id="Address" style="stroke:#A80036;stroke-width:1.5;" width="420" x="7" y="647"/><ellipse cx="189.75" cy="663" fill="#ADD1B2" rx="11" ry="11" style="stroke:#A80036;stroke-width:1.0;"/><path d="M192.5156,658.875 Q192.6719,658.6563 192.8594,658.5469 Q193.0469,658.4375 193.2656,658.4375 Q193.6406,658.4375 193.875,658.7031 Q194.1094,658.9531 194.1094,659.5625 L194.1094,661.0156 Q194.1094,661.625 193.875,661.8906 Q193.6406,662.1563 193.2656,662.1563 Q192.9219,662.1563 192.7188,661.9531 Q192.5156,661.7656 192.4063,661.25 Q192.3594,660.8906 192.1719,660.7031 Q191.8438,660.3281 191.2344,660.1094 Q190.625,659.8906 190,659.8906 Q189.2344,659.8906 188.5938,660.2188 Q187.9688,660.5469 187.4688,661.2969 Q186.9844,662.0469 186.9844,663.0781 L186.9844,664.1719 Q186.9844,665.4063 187.875,666.2344 Q188.7656,667.0469 190.3594,667.0469 Q191.2969,667.0469 191.9531,666.7969 Q192.3438,666.6406 192.7656,666.2031 Q193.0313,665.9375 193.1719,665.8594 Q193.3281,665.7813 193.5313,665.7813 Q193.8594,665.7813 194.1094,666.0469 Q194.375,666.2969 194.375,666.6406 Q194.375,666.9844 194.0313,667.3906 Q193.5313,667.9688 192.7344,668.2969 Q191.6563,668.75 190.3594,668.75 Q188.8438,668.75 187.6406,668.125 Q186.6563,667.625 185.9688,666.5625 Q185.2813,665.4844 185.2813,664.2031 L185.2813,663.0469 Q185.2813,661.7188 185.8906,660.5781 Q186.5156,659.4219 187.6094,658.8125 Q188.7031,658.1875 189.9375,658.1875 Q190.6719,658.1875 191.3125,658.3594 Q191.9688,658.5156 192.5156,658.875 Z " fill="#000000"/><text fill="#000000" font-family="sans-serif" font-size="12" lengthAdjust="spacingAndGlyphs" textLength="46" x="210.25" y="667.9102">Address</text><line style="stroke:#A80036;stroke-width:1.5;" x1="8" x2="426" y1="679" y2="679"/><text fill="#000000" font-family="sans-serif" font-size="11" lengthAdjust="spacingAndGlyphs" textLength="72" x="13" y="694.4189">-int id_address</text><text fill="#000000" font-family="sans-serif" font-size="11" lengthAdjust="spacingAndGlyphs" textLength="93" x="13" y="708.2549">-BigDecimal latitude</text><text fill="#000000" font-family="sans-serif" font-size="11" lengthAdjust="spacingAndGlyphs" textLength="102" x="13" y="722.0908">-BigDecimal longitude</text><text fill="#000000" font-family="sans-serif" font-size="11" lengthAdjust="spacingAndGlyphs" textLength="75" x="13" y="735.9268">-String address</text><text fill="#000000" font-family="sans-serif" font-size="11" lengthAdjust="spacingAndGlyphs" textLength="79" x="13" y="749.7627">-String zip_code</text><text fill="#000000" font-family="sans-serif" font-size="11" lengthAdjust="spacingAndGlyphs" textLength="67" x="13" y="763.5986">-String district</text><text fill="#000000" font-family="sans-serif" font-size="11" lengthAdjust="spacingAndGlyphs" textLength="68" x="13" y="777.4346">-String county</text><text fill="#000000" font-family="sans-serif" font-size="11" lengthAdjust="spacingAndGlyphs" textLength="65" x="13" y="791.2705">-String parish</text><line style="stroke:#A80036;stroke-width:1.5;" x1="8" x2="426" y1="797.6875" y2="797.6875"/><text fill="#000000" font-family="sans-serif" font-size="11" lengthAdjust="spacingAndGlyphs" textLength="408" x="13" y="813.1064">+Address(id_address, latitude, longitude, address, zip_code, district, county, parish)</text><!--MD5=[ed6624c6556d5e7b1bd23032162d20b7]
class Client--><rect codeLine="16" fill="#FEFECE" filter="url(#f13i0762xrv92a)" height="144.8516" id="Client" style="stroke:#A80036;stroke-width:1.5;" width="487" x="316.5" y="442"/><ellipse cx="539.75" cy="458" fill="#ADD1B2" rx="11" ry="11" style="stroke:#A80036;stroke-width:1.0;"/><path d="M542.5156,453.875 Q542.6719,453.6563 542.8594,453.5469 Q543.0469,453.4375 543.2656,453.4375 Q543.6406,453.4375 543.875,453.7031 Q544.1094,453.9531 544.1094,454.5625 L544.1094,456.0156 Q544.1094,456.625 543.875,456.8906 Q543.6406,457.1563 543.2656,457.1563 Q542.9219,457.1563 542.7188,456.9531 Q542.5156,456.7656 542.4063,456.25 Q542.3594,455.8906 542.1719,455.7031 Q541.8438,455.3281 541.2344,455.1094 Q540.625,454.8906 540,454.8906 Q539.2344,454.8906 538.5938,455.2188 Q537.9688,455.5469 537.4688,456.2969 Q536.9844,457.0469 536.9844,458.0781 L536.9844,459.1719 Q536.9844,460.4063 537.875,461.2344 Q538.7656,462.0469 540.3594,462.0469 Q541.2969,462.0469 541.9531,461.7969 Q542.3438,461.6406 542.7656,461.2031 Q543.0313,460.9375 543.1719,460.8594 Q543.3281,460.7813 543.5313,460.7813 Q543.8594,460.7813 544.1094,461.0469 Q544.375,461.2969 544.375,461.6406 Q544.375,461.9844 544.0313,462.3906 Q543.5313,462.9688 542.7344,463.2969 Q541.6563,463.75 540.3594,463.75 Q538.8438,463.75 537.6406,463.125 Q536.6563,462.625 535.9688,461.5625 Q535.2813,460.4844 535.2813,459.2031 L535.2813,458.0469 Q535.2813,456.7188 535.8906,455.5781 Q536.5156,454.4219 537.6094,453.8125 Q538.7031,453.1875 539.9375,453.1875 Q540.6719,453.1875 541.3125,453.3594 Q541.9688,453.5156 542.5156,453.875 Z " fill="#000000"/><text fill="#000000" font-family="sans-serif" font-size="12" lengthAdjust="spacingAndGlyphs" textLength="32" x="560.25" y="462.9102">Client</text><line style="stroke:#A80036;stroke-width:1.5;" x1="317.5" x2="802.5" y1="474" y2="474"/><text fill="#000000" font-family="sans-serif" font-size="11" lengthAdjust="spacingAndGlyphs" textLength="61" x="322.5" y="489.4189">-String name</text><text fill="#000000" font-family="sans-serif" font-size="11" lengthAdjust="spacingAndGlyphs" textLength="47" x="322.5" y="503.2549">-String nif</text><text fill="#000000" font-family="sans-serif" font-size="11" lengthAdjust="spacingAndGlyphs" textLength="59" x="322.5" y="517.0908">-String email</text><text fill="#000000" font-family="sans-serif" font-size="11" lengthAdjust="spacingAndGlyphs" textLength="85" x="322.5" y="530.9268">-String password</text><line style="stroke:#A80036;stroke-width:1.5;" x1="317.5" x2="802.5" y1="537.3438" y2="537.3438"/><text fill="#000000" font-family="sans-serif" font-size="11" lengthAdjust="spacingAndGlyphs" textLength="281" x="322.5" y="552.7627">+Client(name,email,password,phoneNumber,ssn,iban,ccv)</text><text fill="#000000" font-family="sans-serif" font-size="11" lengthAdjust="spacingAndGlyphs" textLength="266" x="322.5" y="566.5986">+Credit_Card newCredit_Card(number, ccv, valid_thru)</text><text fill="#000000" font-family="sans-serif" font-size="11" lengthAdjust="spacingAndGlyphs" textLength="475" x="322.5" y="580.4346">+Address newAddress(id_address, latitude, longitude, address, zip_code, district, county, parish)</text><!--MD5=[063e43d6d1b50dfd5cf61dc99e485715]
class Credit_Card--><rect codeLine="26" fill="#FEFECE" filter="url(#f13i0762xrv92a)" height="103.3438" id="Credit_Card" style="stroke:#A80036;stroke-width:1.5;" width="196" x="462" y="682"/><ellipse cx="522.25" cy="698" fill="#ADD1B2" rx="11" ry="11" style="stroke:#A80036;stroke-width:1.0;"/><path d="M525.0156,693.875 Q525.1719,693.6563 525.3594,693.5469 Q525.5469,693.4375 525.7656,693.4375 Q526.1406,693.4375 526.375,693.7031 Q526.6094,693.9531 526.6094,694.5625 L526.6094,696.0156 Q526.6094,696.625 526.375,696.8906 Q526.1406,697.1563 525.7656,697.1563 Q525.4219,697.1563 525.2188,696.9531 Q525.0156,696.7656 524.9063,696.25 Q524.8594,695.8906 524.6719,695.7031 Q524.3438,695.3281 523.7344,695.1094 Q523.125,694.8906 522.5,694.8906 Q521.7344,694.8906 521.0938,695.2188 Q520.4688,695.5469 519.9688,696.2969 Q519.4844,697.0469 519.4844,698.0781 L519.4844,699.1719 Q519.4844,700.4063 520.375,701.2344 Q521.2656,702.0469 522.8594,702.0469 Q523.7969,702.0469 524.4531,701.7969 Q524.8438,701.6406 525.2656,701.2031 Q525.5313,700.9375 525.6719,700.8594 Q525.8281,700.7813 526.0313,700.7813 Q526.3594,700.7813 526.6094,701.0469 Q526.875,701.2969 526.875,701.6406 Q526.875,701.9844 526.5313,702.3906 Q526.0313,702.9688 525.2344,703.2969 Q524.1563,703.75 522.8594,703.75 Q521.3438,703.75 520.1406,703.125 Q519.1563,702.625 518.4688,701.5625 Q517.7813,700.4844 517.7813,699.2031 L517.7813,698.0469 Q517.7813,696.7188 518.3906,695.5781 Q519.0156,694.4219 520.1094,693.8125 Q521.2031,693.1875 522.4375,693.1875 Q523.1719,693.1875 523.8125,693.3594 Q524.4688,693.5156 525.0156,693.875 Z " fill="#000000"/><text fill="#000000" font-family="sans-serif" font-size="12" lengthAdjust="spacingAndGlyphs" textLength="67" x="542.75" y="702.9102">Credit_Card</text><line style="stroke:#A80036;stroke-width:1.5;" x1="463" x2="657" y1="714" y2="714"/><text fill="#000000" font-family="sans-serif" font-size="11" lengthAdjust="spacingAndGlyphs" textLength="54" x="468" y="729.4189">-int number</text><text fill="#000000" font-family="sans-serif" font-size="11" lengthAdjust="spacingAndGlyphs" textLength="36" x="468" y="743.2549">-int ccv</text><text fill="#000000" font-family="sans-serif" font-size="11" lengthAdjust="spacingAndGlyphs" textLength="76" x="468" y="757.0908">-Date valid_thru</text><line style="stroke:#A80036;stroke-width:1.5;" x1="463" x2="657" y1="763.5078" y2="763.5078"/><text fill="#000000" font-family="sans-serif" font-size="11" lengthAdjust="spacingAndGlyphs" textLength="184" x="468" y="778.9268">+Credit_Card(number, ccv, valid_thru)</text><!--MD5=[7f2a9fafcebe4f099f71398fd3e2ed00]
class Pharmacy--><rect codeLine="33" fill="#FEFECE" filter="url(#f13i0762xrv92a)" height="75.6719" id="Pharmacy" style="stroke:#A80036;stroke-width:1.5;" width="142" x="405" y="285.5"/><ellipse cx="444.75" cy="301.5" fill="#ADD1B2" rx="11" ry="11" style="stroke:#A80036;stroke-width:1.0;"/><path d="M447.5156,297.375 Q447.6719,297.1563 447.8594,297.0469 Q448.0469,296.9375 448.2656,296.9375 Q448.6406,296.9375 448.875,297.2031 Q449.1094,297.4531 449.1094,298.0625 L449.1094,299.5156 Q449.1094,300.125 448.875,300.3906 Q448.6406,300.6563 448.2656,300.6563 Q447.9219,300.6563 447.7188,300.4531 Q447.5156,300.2656 447.4063,299.75 Q447.3594,299.3906 447.1719,299.2031 Q446.8438,298.8281 446.2344,298.6094 Q445.625,298.3906 445,298.3906 Q444.2344,298.3906 443.5938,298.7188 Q442.9688,299.0469 442.4688,299.7969 Q441.9844,300.5469 441.9844,301.5781 L441.9844,302.6719 Q441.9844,303.9063 442.875,304.7344 Q443.7656,305.5469 445.3594,305.5469 Q446.2969,305.5469 446.9531,305.2969 Q447.3438,305.1406 447.7656,304.7031 Q448.0313,304.4375 448.1719,304.3594 Q448.3281,304.2813 448.5313,304.2813 Q448.8594,304.2813 449.1094,304.5469 Q449.375,304.7969 449.375,305.1406 Q449.375,305.4844 449.0313,305.8906 Q448.5313,306.4688 447.7344,306.7969 Q446.6563,307.25 445.3594,307.25 Q443.8438,307.25 442.6406,306.625 Q441.6563,306.125 440.9688,305.0625 Q440.2813,303.9844 440.2813,302.7031 L440.2813,301.5469 Q440.2813,300.2188 440.8906,299.0781 Q441.5156,297.9219 442.6094,297.3125 Q443.7031,296.6875 444.9375,296.6875 Q445.6719,296.6875 446.3125,296.8594 Q446.9688,297.0156 447.5156,297.375 Z " fill="#000000"/><text fill="#000000" font-family="sans-serif" font-size="12" lengthAdjust="spacingAndGlyphs" textLength="55" x="464.25" y="306.4102">Pharmacy</text><line style="stroke:#A80036;stroke-width:1.5;" x1="406" x2="546" y1="317.5" y2="317.5"/><text fill="#000000" font-family="sans-serif" font-size="11" lengthAdjust="spacingAndGlyphs" textLength="90" x="411" y="332.9189">-String designation</text><line style="stroke:#A80036;stroke-width:1.5;" x1="406" x2="546" y1="339.3359" y2="339.3359"/><text fill="#000000" font-family="sans-serif" font-size="11" lengthAdjust="spacingAndGlyphs" textLength="130" x="411" y="354.7549">+ListClients getListClients()</text><!--MD5=[0cf30e5f1d9fdb09880ac14bf85d89b0]
class ListClients--><rect codeLine="38" fill="#FEFECE" filter="url(#f13i0762xrv92a)" height="117.1797" id="ListClients" style="stroke:#A80036;stroke-width:1.5;" width="372" x="582" y="265"/><ellipse cx="734.25" cy="281" fill="#ADD1B2" rx="11" ry="11" style="stroke:#A80036;stroke-width:1.0;"/><path d="M737.0156,276.875 Q737.1719,276.6563 737.3594,276.5469 Q737.5469,276.4375 737.7656,276.4375 Q738.1406,276.4375 738.375,276.7031 Q738.6094,276.9531 738.6094,277.5625 L738.6094,279.0156 Q738.6094,279.625 738.375,279.8906 Q738.1406,280.1563 737.7656,280.1563 Q737.4219,280.1563 737.2188,279.9531 Q737.0156,279.7656 736.9063,279.25 Q736.8594,278.8906 736.6719,278.7031 Q736.3438,278.3281 735.7344,278.1094 Q735.125,277.8906 734.5,277.8906 Q733.7344,277.8906 733.0938,278.2188 Q732.4688,278.5469 731.9688,279.2969 Q731.4844,280.0469 731.4844,281.0781 L731.4844,282.1719 Q731.4844,283.4063 732.375,284.2344 Q733.2656,285.0469 734.8594,285.0469 Q735.7969,285.0469 736.4531,284.7969 Q736.8438,284.6406 737.2656,284.2031 Q737.5313,283.9375 737.6719,283.8594 Q737.8281,283.7813 738.0313,283.7813 Q738.3594,283.7813 738.6094,284.0469 Q738.875,284.2969 738.875,284.6406 Q738.875,284.9844 738.5313,285.3906 Q738.0313,285.9688 737.2344,286.2969 Q736.1563,286.75 734.8594,286.75 Q733.3438,286.75 732.1406,286.125 Q731.1563,285.625 730.4688,284.5625 Q729.7813,283.4844 729.7813,282.2031 L729.7813,281.0469 Q729.7813,279.7188 730.3906,278.5781 Q731.0156,277.4219 732.1094,276.8125 Q733.2031,276.1875 734.4375,276.1875 Q735.1719,276.1875 735.8125,276.3594 Q736.4688,276.5156 737.0156,276.875 Z " fill="#000000"/><text fill="#000000" font-family="sans-serif" font-size="12" lengthAdjust="spacingAndGlyphs" textLength="59" x="754.75" y="285.9102">ListClients</text><line style="stroke:#A80036;stroke-width:1.5;" x1="583" x2="953" y1="297" y2="297"/><line style="stroke:#A80036;stroke-width:1.5;" x1="583" x2="953" y1="305" y2="305"/><text fill="#000000" font-family="sans-serif" font-size="11" lengthAdjust="spacingAndGlyphs" textLength="339" x="588" y="320.4189">+Client newClient(nif, name, email, password, number, ccv, valid_thru,</text><text fill="#000000" font-family="sans-serif" font-size="11" lengthAdjust="spacingAndGlyphs" textLength="360" x="588" y="334.2549">id_address, address, latitude, longitude, zip_code, district, country, parish)</text><text fill="#000000" font-family="sans-serif" font-size="11" lengthAdjust="spacingAndGlyphs" textLength="117" x="588" y="348.0908">+validateClient(Client clt)</text><text fill="#000000" font-family="sans-serif" font-size="11" lengthAdjust="spacingAndGlyphs" textLength="117" x="588" y="361.9268">+registerClient(Client clt)</text><text fill="#000000" font-family="sans-serif" font-size="11" lengthAdjust="spacingAndGlyphs" textLength="96" x="588" y="375.7627">-addClient(Client clt)</text><!--MD5=[79201099e7ad95730d4f601b46d6ddd1]
class ClientDB--><rect codeLine="45" fill="#FEFECE" filter="url(#f13i0762xrv92a)" height="61.8359" id="ClientDB" style="stroke:#A80036;stroke-width:1.5;" width="81" x="693.5" y="702.5"/><ellipse cx="708.5" cy="718.5" fill="#ADD1B2" rx="11" ry="11" style="stroke:#A80036;stroke-width:1.0;"/><path d="M711.2656,714.375 Q711.4219,714.1563 711.6094,714.0469 Q711.7969,713.9375 712.0156,713.9375 Q712.3906,713.9375 712.625,714.2031 Q712.8594,714.4531 712.8594,715.0625 L712.8594,716.5156 Q712.8594,717.125 712.625,717.3906 Q712.3906,717.6563 712.0156,717.6563 Q711.6719,717.6563 711.4688,717.4531 Q711.2656,717.2656 711.1563,716.75 Q711.1094,716.3906 710.9219,716.2031 Q710.5938,715.8281 709.9844,715.6094 Q709.375,715.3906 708.75,715.3906 Q707.9844,715.3906 707.3438,715.7188 Q706.7188,716.0469 706.2188,716.7969 Q705.7344,717.5469 705.7344,718.5781 L705.7344,719.6719 Q705.7344,720.9063 706.625,721.7344 Q707.5156,722.5469 709.1094,722.5469 Q710.0469,722.5469 710.7031,722.2969 Q711.0938,722.1406 711.5156,721.7031 Q711.7813,721.4375 711.9219,721.3594 Q712.0781,721.2813 712.2813,721.2813 Q712.6094,721.2813 712.8594,721.5469 Q713.125,721.7969 713.125,722.1406 Q713.125,722.4844 712.7813,722.8906 Q712.2813,723.4688 711.4844,723.7969 Q710.4063,724.25 709.1094,724.25 Q707.5938,724.25 706.3906,723.625 Q705.4063,723.125 704.7188,722.0625 Q704.0313,720.9844 704.0313,719.7031 L704.0313,718.5469 Q704.0313,717.2188 704.6406,716.0781 Q705.2656,714.9219 706.3594,714.3125 Q707.4531,713.6875 708.6875,713.6875 Q709.4219,713.6875 710.0625,713.8594 Q710.7188,714.0156 711.2656,714.375 Z " fill="#000000"/><text fill="#000000" font-family="sans-serif" font-size="12" lengthAdjust="spacingAndGlyphs" textLength="49" x="722.5" y="723.4102">ClientDB</text><line style="stroke:#A80036;stroke-width:1.5;" x1="694.5" x2="773.5" y1="734.5" y2="734.5"/><line style="stroke:#A80036;stroke-width:1.5;" x1="694.5" x2="773.5" y1="742.5" y2="742.5"/><text fill="#000000" font-family="sans-serif" font-size="11" lengthAdjust="spacingAndGlyphs" textLength="49" x="699.5" y="757.9189">+save(clt)</text><!--MD5=[1a7fda4a36185bcd740bdf14b2b3a45e]
class RegisterClientController--><rect codeLine="49" fill="#FEFECE" filter="url(#f13i0762xrv92a)" height="89.5078" id="RegisterClientController" style="stroke:#A80036;stroke-width:1.5;" width="372" x="290" y="115"/><ellipse cx="405.25" cy="131" fill="#ADD1B2" rx="11" ry="11" style="stroke:#A80036;stroke-width:1.0;"/><path d="M408.0156,126.875 Q408.1719,126.6563 408.3594,126.5469 Q408.5469,126.4375 408.7656,126.4375 Q409.1406,126.4375 409.375,126.7031 Q409.6094,126.9531 409.6094,127.5625 L409.6094,129.0156 Q409.6094,129.625 409.375,129.8906 Q409.1406,130.1563 408.7656,130.1563 Q408.4219,130.1563 408.2188,129.9531 Q408.0156,129.7656 407.9063,129.25 Q407.8594,128.8906 407.6719,128.7031 Q407.3438,128.3281 406.7344,128.1094 Q406.125,127.8906 405.5,127.8906 Q404.7344,127.8906 404.0938,128.2188 Q403.4688,128.5469 402.9688,129.2969 Q402.4844,130.0469 402.4844,131.0781 L402.4844,132.1719 Q402.4844,133.4063 403.375,134.2344 Q404.2656,135.0469 405.8594,135.0469 Q406.7969,135.0469 407.4531,134.7969 Q407.8438,134.6406 408.2656,134.2031 Q408.5313,133.9375 408.6719,133.8594 Q408.8281,133.7813 409.0313,133.7813 Q409.3594,133.7813 409.6094,134.0469 Q409.875,134.2969 409.875,134.6406 Q409.875,134.9844 409.5313,135.3906 Q409.0313,135.9688 408.2344,136.2969 Q407.1563,136.75 405.8594,136.75 Q404.3438,136.75 403.1406,136.125 Q402.1563,135.625 401.4688,134.5625 Q400.7813,133.4844 400.7813,132.2031 L400.7813,131.0469 Q400.7813,129.7188 401.3906,128.5781 Q402.0156,127.4219 403.1094,126.8125 Q404.2031,126.1875 405.4375,126.1875 Q406.1719,126.1875 406.8125,126.3594 Q407.4688,126.5156 408.0156,126.875 Z " fill="#000000"/><text fill="#000000" font-family="sans-serif" font-size="12" lengthAdjust="spacingAndGlyphs" textLength="133" x="425.75" y="135.9102">RegisterClientController</text><line style="stroke:#A80036;stroke-width:1.5;" x1="291" x2="661" y1="147" y2="147"/><line style="stroke:#A80036;stroke-width:1.5;" x1="291" x2="661" y1="155" y2="155"/><text fill="#000000" font-family="sans-serif" font-size="11" lengthAdjust="spacingAndGlyphs" textLength="310" x="296" y="170.4189">+newClient(nif, name, email, password, number, ccv, valid_thru,</text><text fill="#000000" font-family="sans-serif" font-size="11" lengthAdjust="spacingAndGlyphs" textLength="360" x="296" y="184.2549">id_address, address, latitude, longitude, zip_code, district, country, parish)</text><text fill="#000000" font-family="sans-serif" font-size="11" lengthAdjust="spacingAndGlyphs" textLength="77" x="296" y="198.0908">+registerClient()</text><!--MD5=[71152100d89f377ebd8dc97f1c2b0d02]
class RegisterClientUI--><rect codeLine="54" fill="#FEFECE" filter="url(#f13i0762xrv92a)" height="48" id="RegisterClientUI" style="stroke:#A80036;stroke-width:1.5;" width="123" x="414.5" y="7"/><ellipse cx="429.5" cy="23" fill="#ADD1B2" rx="11" ry="11" style="stroke:#A80036;stroke-width:1.0;"/><path d="M432.2656,18.875 Q432.4219,18.6563 432.6094,18.5469 Q432.7969,18.4375 433.0156,18.4375 Q433.3906,18.4375 433.625,18.7031 Q433.8594,18.9531 433.8594,19.5625 L433.8594,21.0156 Q433.8594,21.625 433.625,21.8906 Q433.3906,22.1563 433.0156,22.1563 Q432.6719,22.1563 432.4688,21.9531 Q432.2656,21.7656 432.1563,21.25 Q432.1094,20.8906 431.9219,20.7031 Q431.5938,20.3281 430.9844,20.1094 Q430.375,19.8906 429.75,19.8906 Q428.9844,19.8906 428.3438,20.2188 Q427.7188,20.5469 427.2188,21.2969 Q426.7344,22.0469 426.7344,23.0781 L426.7344,24.1719 Q426.7344,25.4063 427.625,26.2344 Q428.5156,27.0469 430.1094,27.0469 Q431.0469,27.0469 431.7031,26.7969 Q432.0938,26.6406 432.5156,26.2031 Q432.7813,25.9375 432.9219,25.8594 Q433.0781,25.7813 433.2813,25.7813 Q433.6094,25.7813 433.8594,26.0469 Q434.125,26.2969 434.125,26.6406 Q434.125,26.9844 433.7813,27.3906 Q433.2813,27.9688 432.4844,28.2969 Q431.4063,28.75 430.1094,28.75 Q428.5938,28.75 427.3906,28.125 Q426.4063,27.625 425.7188,26.5625 Q425.0313,25.4844 425.0313,24.2031 L425.0313,23.0469 Q425.0313,21.7188 425.6406,20.5781 Q426.2656,19.4219 427.3594,18.8125 Q428.4531,18.1875 429.6875,18.1875 Q430.4219,18.1875 431.0625,18.3594 Q431.7188,18.5156 432.2656,18.875 Z " fill="#000000"/><text fill="#000000" font-family="sans-serif" font-size="12" lengthAdjust="spacingAndGlyphs" textLength="91" x="443.5" y="27.9102">RegisterClientUI</text><line style="stroke:#A80036;stroke-width:1.5;" x1="415.5" x2="536.5" y1="39" y2="39"/><line style="stroke:#A80036;stroke-width:1.5;" x1="415.5" x2="536.5" y1="47" y2="47"/><!--MD5=[98d2d934d445daef8d5bcbeea20c1f70]
link RegisterClientUI to RegisterClientController--><path codeLine="57" d="M476,55.294 C476,70.479 476,90.876 476,109.563 " fill="none" id="RegisterClientUI-to-RegisterClientController" style="stroke:#A80036;stroke-width:1.0;stroke-dasharray:7.0,7.0;"/><polygon fill="#A80036" points="476,114.782,480,105.782,476,109.782,472,105.782,476,114.782" style="stroke:#A80036;stroke-width:1.0;"/><!--MD5=[132e7e48a3ebc1db4c2b4f26e1468b2f]
link RegisterClientController to Pharmacy--><path codeLine="58" d="M476,205.131 C476,228.487 476,257.029 476,280.118 " fill="none" id="RegisterClientController-to-Pharmacy" style="stroke:#A80036;stroke-width:1.0;stroke-dasharray:7.0,7.0;"/><polygon fill="#A80036" points="476,285.259,480,276.259,476,280.259,472,276.259,476,285.259" style="stroke:#A80036;stroke-width:1.0;"/><!--MD5=[e040861ebb11a3e9e9215f7d52917914]
link RegisterClientController to ListClients--><path codeLine="59" d="M555.79,205.131 C587.707,222.783 624.979,243.398 659.303,262.382 " fill="none" id="RegisterClientController-to-ListClients" style="stroke:#A80036;stroke-width:1.0;stroke-dasharray:7.0,7.0;"/><polygon fill="#A80036" points="663.908,264.929,657.9681,257.0729,659.5326,262.5092,654.0964,264.0736,663.908,264.929" style="stroke:#A80036;stroke-width:1.0;"/><!--MD5=[ed103a8ea2b4d350bb3452ad82ebe4da]
link RegisterClientController to Client--><path codeLine="60" d="M426.071,205.213 C410.464,222.17 395.195,242.82 387,265 C368.978,313.777 363.895,335.415 387,382 C397.519,403.209 413.277,421.922 431.073,438.088 " fill="none" id="RegisterClientController-to-Client" style="stroke:#A80036;stroke-width:1.0;stroke-dasharray:7.0,7.0;"/><polygon fill="#A80036" points="435.144,441.713,431.0814,432.7411,431.4094,438.3884,425.7621,438.7165,435.144,441.713" style="stroke:#A80036;stroke-width:1.0;"/><!--MD5=[73dc9faf0fce2778bf778ed65a3247a8]
link ListClients to Client--><path codeLine="62" d="M704.463,382.233 C685.006,399.913 663.309,419.627 642.768,438.293 " fill="none" id="ListClients-to-Client" style="stroke:#A80036;stroke-width:1.0;"/><polygon fill="#A80036" points="638.946,441.765,648.2971,438.6736,642.6467,438.4028,642.9175,432.7524,638.946,441.765" style="stroke:#A80036;stroke-width:1.0;"/><text fill="#000000" font-family="sans-serif" font-size="13" lengthAdjust="spacingAndGlyphs" textLength="7" x="689.2929" y="403.8717">1</text><text fill="#000000" font-family="sans-serif" font-size="13" lengthAdjust="spacingAndGlyphs" textLength="5" x="641.8295" y="430.9601">*</text><!--MD5=[bd708f2371c655af07b49ddbdb30848a]
link Client to Address--><path codeLine="63" d="M446.738,587.155 C417.91,605.393 386.591,625.208 356.619,644.17 " fill="none" id="Client-to-Address" style="stroke:#A80036;stroke-width:1.0;"/><polygon fill="#A80036" points="352.207,646.961,361.9514,645.5305,356.4326,644.2882,357.6749,638.7694,352.207,646.961" style="stroke:#A80036;stroke-width:1.0;"/><!--MD5=[d4ef3d4fc7e4c2e8e519adb25469d1ca]
link Client to Credit_Card--><path codeLine="64" d="M560,587.155 C560,616.326 560,649.529 560,676.829 " fill="none" id="Client-to-Credit_Card" style="stroke:#A80036;stroke-width:1.0;"/><polygon fill="#A80036" points="560,681.855,564,672.855,560,676.855,556,672.855,560,681.855" style="stroke:#A80036;stroke-width:1.0;"/><!--MD5=[734a0017232906ec3dc2b763834e41f9]
link Client to ClientDB--><path codeLine="65" d="M626.116,587.135 C642.883,606.187 660.519,627.03 676,647 C688.557,663.197 701.458,681.968 711.896,697.788 " fill="none" id="Client-to-ClientDB" style="stroke:#A80036;stroke-width:1.0;stroke-dasharray:7.0,7.0;"/><polygon fill="#A80036" points="714.772,702.168,713.1764,692.4493,712.0279,697.9883,706.4889,696.8398,714.772,702.168" style="stroke:#A80036;stroke-width:1.0;"/><!--MD5=[3eb4d5bc91d384435d7201b24b7f22b8]
@startuml

skinparam classAttributeIconSize 0

class Address {
  -int id_address
  -BigDecimal latitude
  -BigDecimal longitude
  -String address
  -String zip_code
  -String district
  -String county
  -String parish
  +Address(id_address, latitude, longitude, address, zip_code, district, county, parish)
}

class Client {
  -String name
  -String nif
  -String email
  -String password
  +Client(name,email,password,phoneNumber,ssn,iban,ccv)
  +Credit_Card newCredit_Card(number, ccv, valid_thru)
  +Address newAddress(id_address, latitude, longitude, address, zip_code, district, county, parish)
}

class Credit_Card {
    -int number
    -int ccv
    -Date valid_thru
    +Credit_Card(number, ccv, valid_thru)
}

class Pharmacy {
  -String designation
  +ListClients getListClients()
}

class ListClients {
  +Client newClient(nif, name, email, password, number, ccv, valid_thru, \nid_address, address, latitude, longitude, zip_code, district, country, parish)
  +validateClient(Client clt)
  +registerClient(Client clt)
  -addClient(Client clt)
}

class ClientDB {
    +save(clt)
}

class RegisterClientController {
    +newClient(nif, name, email, password, number, ccv, valid_thru, \nid_address, address, latitude, longitude, zip_code, district, country, parish)
    +registerClient()
}

class RegisterClientUI {
}

RegisterClientUI ..> RegisterClientController
RegisterClientController ..> Pharmacy
RegisterClientController ..> ListClients
RegisterClientController ..> Client

ListClients "1" - -> "*" Client 
Client - -> Address
Client - -> Credit_Card
Client ..> ClientDB

@enduml

PlantUML version 1.2020.22(Sun Dec 06 09:36:27 WET 2020)
(GPL source distribution)
Java Runtime: OpenJDK Runtime Environment
JVM: OpenJDK 64-Bit Server VM
Default Encoding: Cp1252
Language: pt
Country: PT
--></g></svg>